<svg version="1.1" xmlns="http://www.w3.org/2000/svg" xmlns:xlink="http://www.w3.org/1999/xlink" width="74.04001" height="74.04001" viewBox="0,0,74.04001,74.04001"><defs><linearGradient x1="211.84485" y1="173.76114" x2="401.98913" y2="173.76114" gradientUnits="userSpaceOnUse" id="color-1"><stop offset="0" stop-color="#ff853a"/><stop offset="1" stop-color="#ff7c2a"/></linearGradient><linearGradient x1="242.41415" y1="179.36981" x2="255.8308" y2="209.19611" gradientUnits="userSpaceOnUse" id="color-2"><stop offset="0" stop-color="#747474"/><stop offset="1" stop-color="#5f5c5c"/></linearGradient></defs><g transform="translate(-202.98,-142.97999)"><g data-paper-data="{&quot;isPaintingLayer&quot;:true}" fill-rule="nonzero" stroke-linecap="butt" stroke-linejoin="miter" stroke-miterlimit="10" stroke-dasharray="" stroke-dashoffset="0" style="mix-blend-mode: normal"><g><g stroke="#ce4f00" stroke-width="1.5"><path d="M227.98545,179.26519c0.68205,0.2254 1.68372,0.56086 2.33613,0.82119c0.6524,0.26036 1.70952,0.74947 2.38001,1.06671c0.37067,0.17424 0.47134,0.52723 0.27067,0.8623c-0.23886,0.40462 -0.54849,0.95637 -0.75563,1.44966c-0.16399,0.39063 -0.39991,0.9952 -0.64964,1.6615c0.71807,0.54675 1.35973,1.16827 1.91276,1.85091c0.68132,-0.25139 1.30066,-0.48372 1.69885,-0.64641c0.50573,-0.20455 1.0695,-0.51165 1.48064,-0.74809c0.34438,-0.19878 0.70639,-0.104 0.88844,0.25517c0.32757,0.64819 0.84971,1.70443 1.11172,2.3089c0.26198,0.60447 0.62429,1.60569 0.86104,2.27023c0.14004,0.39501 -0.02455,0.72984 -0.39176,0.82594c-0.47826,0.12487 -1.13588,0.31263 -1.63904,0.5182c-0.39607,0.15767 -0.99045,0.42335 -1.6448,0.71767c0.11144,0.86305 0.11859,1.7459 0.01237,2.62737c0.67783,0.29974 1.29972,0.56838 1.70555,0.73035c0.50599,0.20192 1.12663,0.3736 1.59004,0.49129c0.38468,0.09796 0.57331,0.41295 0.44083,0.79278c-0.23812,0.6885 -0.63325,1.79377 -0.88872,2.40227c-0.25547,0.60846 -0.72412,1.56748 -1.03752,2.19961c-0.1876,0.37538 -0.5463,0.50118 -0.87564,0.31422c-0.42679,-0.24048 -1.0292,-0.56275 -1.53519,-0.76467c-0.40324,-0.16094 -1.02854,-0.39291 -1.71967,-0.63952c-0.55826,0.70107 -1.19835,1.3256 -1.89856,1.86475c0.25788,0.66422 0.49617,1.26801 0.66303,1.65621c0.20981,0.49303 0.52483,1.04266 0.76733,1.4435c0.2039,0.33572 0.10667,0.6887 -0.26174,0.86618c-0.66593,0.32184 -1.74932,0.8309 -2.36936,1.08634c-0.62004,0.2554 -1.64701,0.60862 -2.32868,0.83943c-0.40518,0.13649 -0.74863,-0.02394 -0.84725,-0.38197c-0.12808,-0.46626 -0.31967,-1.10986 -0.5305,-1.60039c-0.16537,-0.38467 -0.4368,-0.96661 -0.73974,-1.60205c-0.88527,0.10864 -1.78827,0.11664 -2.695,0.01204c-0.29856,0.64683 -0.56787,1.23808 -0.73187,1.6287c-0.20607,0.49078 -0.38322,1.09835 -0.50287,1.5476c-0.10157,0.37752 -0.42467,0.56141 -0.81425,0.43227c-0.70518,-0.2346 -1.83995,-0.61735 -2.46407,-0.86641c-0.62412,-0.24908 -1.60784,-0.70595 -2.25519,-1.014c-0.38609,-0.1804 -0.51408,-0.53258 -0.32332,-0.85115c0.24671,-0.41611 0.57724,-1.00337 0.78433,-1.49664c0.16193,-0.3856 0.39359,-0.98019 0.64126,-1.64146c-0.71912,-0.54425 -1.35973,-1.16827 -1.91276,-1.85091c-0.67667,0.24744 -1.28622,0.47779 -1.68077,0.63899c-0.50317,0.20558 -1.10264,0.53348 -1.52932,0.77836c-0.32775,0.18785 -0.68548,0.06847 -0.87877,-0.30684c-0.31744,-0.62953 -0.79559,-1.58337 -1.05652,-2.19037c-0.27051,-0.63419 -0.66467,-1.70948 -0.90795,-2.39422c-0.135,-0.37838 0.04953,-0.6965 0.4364,-0.79645c0.46225,-0.12248 1.08218,-0.299 1.58532,-0.50459c0.39819,-0.16269 1.00236,-0.43029 1.66501,-0.73008c-0.11401,-0.8641 -0.11859,-1.74588 -0.01237,-2.62735c-0.64188,-0.28538 -1.22629,-0.53614 -1.61415,-0.69096c-0.50599,-0.20192 -1.16727,-0.38398 -1.64453,-0.50429c-0.36671,-0.09081 -0.53198,-0.4257 -0.39574,-0.82156c0.22865,-0.66595 0.57271,-1.64249 0.83978,-2.27851c0.26707,-0.63603 0.77134,-1.66558 1.0942,-2.32025c0.17872,-0.36136 0.54081,-0.45951 0.88709,-0.26285c0.41244,0.23185 0.97842,0.53371 1.48441,0.73564c0.39298,0.15681 0.99771,0.38064 1.66831,0.619c0.55931,-0.70356 1.1994,-1.32809 1.89963,-1.86724c-0.25743,-0.65822 -0.49113,-1.25141 -0.65649,-1.63606c-0.21087,-0.49054 -0.54723,-1.07497 -0.7984,-1.49094c-0.19269,-0.31953 -0.06921,-0.67081 0.31474,-0.85672c0.64576,-0.30947 1.62418,-0.77562 2.24676,-1.02996c0.65157,-0.26621 1.75349,-0.64798 2.45586,-0.88516c0.38812,-0.13161 0.71443,0.04829 0.81696,0.42544c0.12458,0.45316 0.3067,1.05502 0.51758,1.54553c0.16688,0.3882 0.44134,0.9772 0.74887,1.62322c0.88527,-0.10864 1.79085,-0.11562 2.69502,-0.01206c0.29542,-0.63931 0.56152,-1.22305 0.72344,-1.60866c0.20712,-0.49329 0.39387,-1.13797 0.51723,-1.60325c0.0942,-0.36 0.43775,-0.52112 0.84377,-0.3883z" fill="#ff853a"/><path d="M260.24751,193.46592c-1.19677,1.46921 -2.68165,2.76557 -4.45464,3.8891c-1.77299,1.12353 -3.70112,2.05258 -5.78439,2.78719c-2.03893,0.73461 -4.12221,1.27475 -6.2498,1.62046c-2.12759,0.34571 -4.16653,0.51854 -6.11682,0.51854c-3.76759,0 -7.22493,-0.64818 -10.37199,-1.94455c-3.14706,-1.29637 -5.87304,-3.08967 -8.17792,-5.37993c-2.26056,-2.33346 -4.03355,-5.05584 -5.31898,-8.16711c-1.28543,-3.11128 -1.92813,-6.48183 -1.92813,-10.11166c0,-2.72237 0.31027,-5.40153 0.93082,-8.03748c0.66488,-2.63594 1.59569,-5.12065 2.79246,-7.45411c1.19677,-2.33346 2.65949,-4.47247 4.38816,-6.41702c1.72866,-1.94455 3.67896,-3.62983 5.85086,-5.05583c2.21624,-1.42601 4.63193,-2.52791 7.2471,-3.30573c2.61517,-0.77782 5.40762,-1.16673 8.37738,-1.16673c1.10811,0 2.28274,0.0432 3.52382,0.12963c1.28543,0.08643 2.54868,0.23766 3.78977,0.45373c1.28543,0.21607 2.50435,0.51855 3.6568,0.90745c1.19677,0.38891 2.30488,0.84265 3.32436,1.36119l-1.13028,14.45449c-1.4184,-0.51854 -2.90326,-0.86425 -4.45464,-1.03709c-1.55138,-0.21607 -3.05841,-0.32409 -4.52113,-0.32409c-2.08327,0 -4.03354,0.32409 -5.85086,0.97227c-1.77299,0.60498 -3.32436,1.49082 -4.6541,2.65755c-1.32975,1.12353 -2.39353,2.52792 -3.19138,4.21319c-0.75352,1.64207 -1.13028,3.5218 -1.13028,5.6392c0,1.29637 0.17729,2.57112 0.5319,3.82429c0.39892,1.20994 0.95299,2.29026 1.66218,3.24092c0.75352,0.90745 1.66218,1.66366 2.72598,2.26864c1.10811,0.56175 2.39354,0.84264 3.85625,0.84264c0.97513,0 1.97245,-0.12964 2.99193,-0.38891c1.06379,-0.25928 1.97244,-0.69138 2.72598,-1.29637l0.19947,-2.91683l-9.3082,-0.12964l0.46541,-11.34322c3.85626,-0.12964 7.69034,-0.23766 11.50228,-0.32409c3.85626,-0.08643 7.73468,-0.21607 11.63526,-0.38891z" fill="url(#color-1)"/></g><path d="M202.98,217.02001v-74.04001h74.04001v74.04001z" fill-opacity="0" fill="#ffffff" stroke="none" stroke-width="NaN"/><g stroke="#434343"><path d="M232.80241,186.83385c0.11047,0.29243 0.27116,0.72312 0.36097,1.01531c0.08981,0.29219 0.21156,0.78441 0.28626,1.09858c0.04172,0.17336 -0.05519,0.30572 -0.22982,0.33167c-0.20991,0.03249 -0.49167,0.08222 -0.72413,0.15013c-0.18408,0.05377 -0.46397,0.14308 -0.76958,0.2449c0.00673,0.39419 -0.03432,0.78354 -0.12176,1.16012c0.2791,0.15916 0.53415,0.30279 0.70286,0.3914c0.21352,0.11313 0.47956,0.21718 0.67799,0.28959c0.16646,0.06044 0.23391,0.20872 0.15752,0.37019c-0.13814,0.29109 -0.36645,0.76148 -0.5074,1.01829c-0.14095,0.25682 -0.39439,0.65807 -0.56366,0.92315c-0.10081,0.15732 -0.2653,0.19536 -0.40179,0.09857c-0.17765,-0.12612 -0.42761,-0.29504 -0.64078,-0.40702c-0.16634,-0.08931 -0.42622,-0.21521 -0.71301,-0.35333c-0.27453,0.27829 -0.58514,0.52699 -0.9269,0.73717c0.08296,0.31174 0.16136,0.596 0.21723,0.77775c0.06966,0.22662 0.18202,0.48339 0.26963,0.67217c0.07263,0.1568 0.01371,0.30815 -0.15774,0.36953c-0.31021,0.11196 -0.81184,0.28733 -1.09856,0.37111c-0.28672,0.08377 -0.75705,0.1936 -1.06834,0.26449c-0.18525,0.04159 -0.32988,-0.04403 -0.35555,-0.20704c-0.03392,-0.21073 -0.08788,-0.50338 -0.15753,-0.73c-0.05552,-0.1806 -0.14782,-0.45577 -0.25332,-0.75716c-0.40399,0.00771 -0.80371,-0.03346 -1.18999,-0.1187c-0.16326,0.2721 -0.31059,0.52074 -0.40148,0.68522c-0.11605,0.20816 -0.22278,0.46752 -0.29705,0.66097c-0.06199,0.16228 -0.21409,0.22804 -0.37972,0.15357c-0.29977,-0.13431 -0.78227,-0.35691 -1.04568,-0.49433c-0.26343,-0.13741 -0.67501,-0.38449 -0.94692,-0.54951c-0.16137,-0.09828 -0.20039,-0.25864 -0.10111,-0.3917c0.12937,-0.17319 0.30382,-0.41723 0.41868,-0.62505c0.09006,-0.16296 0.22041,-0.41668 0.36088,-0.69592c-0.28546,-0.26764 -0.54021,-0.5693 -0.75615,-0.90363c-0.31234,0.07997 -0.59682,0.15431 -0.7809,0.20809c-0.23128,0.06757 -0.49583,0.17746 -0.6883,0.26253c-0.16201,0.07117 -0.31727,0.01372 -0.38023,-0.15343c-0.11365,-0.30277 -0.29473,-0.79146 -0.38066,-1.07099c-0.08593,-0.27953 -0.19858,-0.73805 -0.27012,-1.04186c-0.04383,-0.18026 0.04516,-0.3216 0.21118,-0.34627c0.21615,-0.03307 0.51634,-0.08567 0.7488,-0.15357c0.18172,-0.05309 0.45688,-0.14101 0.76014,-0.24214c-0.00791,-0.39385 0.03432,-0.78354 0.12176,-1.16012c-0.2764,-0.15869 -0.52802,-0.29956 -0.69519,-0.38737c-0.21317,-0.11198 -0.49654,-0.22225 -0.70229,-0.29754c-0.15796,-0.0579 -0.2155,-0.21159 -0.13653,-0.38135c0.13435,-0.28247 0.33871,-0.7095 0.48085,-0.96665c0.1491,-0.26797 0.41989,-0.70061 0.59447,-0.97352c0.09633,-0.151 0.26046,-0.17765 0.40377,-0.07534c0.17235,0.1214 0.4078,0.28077 0.62096,0.39275c0.1687,0.08862 0.43201,0.21729 0.72304,0.35667c0.27416,-0.27944 0.58514,-0.52699 0.9269,-0.73717c-0.07802,-0.29563 -0.15229,-0.56229 -0.20567,-0.73599c-0.06966,-0.22662 -0.18969,-0.49995 -0.28025,-0.69414c-0.07015,-0.14875 0.00233,-0.2978 0.18051,-0.36239c0.29961,-0.10885 0.7414,-0.2655 1.0411,-0.35307c0.29971,-0.08756 0.80497,-0.20509 1.12687,-0.27908c0.17783,-0.04067 0.31359,0.05381 0.34055,0.2252c0.03298,0.20349 0.08398,0.47819 0.15365,0.70481c0.0541,0.176 0.14359,0.44196 0.24626,0.73415c0.40518,-0.00805 0.8049,0.03312 1.19115,0.11834c0.16124,-0.27027 0.30609,-0.51443 0.39616,-0.67739c0.11487,-0.20782 0.22797,-0.48408 0.3052,-0.68466c0.05939,-0.154 0.21822,-0.21043 0.39117,-0.1331c0.28974,0.13098 0.72777,0.33021 0.99153,0.46878c0.27604,0.14501 0.71865,0.40935 0.99858,0.57955c0.15489,0.09391 0.18222,0.25392 0.07728,0.39364c-0.12571,0.16837 -0.288,0.39756 -0.40286,0.60537c-0.0909,0.16446 -0.22288,0.42116 -0.36585,0.70489c0.28546,0.26764 0.54056,0.57045 0.75615,0.90362c0.3088,-0.07893 0.58974,-0.15224 0.77145,-0.20534c0.23245,-0.06791 0.51283,-0.18493 0.71202,-0.27322c0.15376,-0.06874 0.30665,0.00193 0.37291,0.17563z" fill="#737373" stroke-width="0.75"/><path d="M262.43688,171.90894l7.94275,30.77113l-11.92956,5.39624l-9.26727,-13.75571l3.62294,14.90025l-11.86575,5.53809l-17.71897,-26.08408l10.09857,-5.41685l9.8313,16.26313l-4.84747,-18.39387l8.25789,-3.53048l11.12751,15.96268l-6.14366,-18.09341z" fill="url(#color-2)" stroke-width="1.5"/></g></g></g></g></svg>
