<svg version="1.1" xmlns="http://www.w3.org/2000/svg" xmlns:xlink="http://www.w3.org/1999/xlink" width="262.33968" height="126.48502" viewBox="0,0,262.33968,126.48502"><defs><linearGradient x1="152.53635" y1="183.90239" x2="152.53635" y2="238.13733" gradientUnits="userSpaceOnUse" id="color-1"><stop offset="0" stop-color="#747474"/><stop offset="1" stop-color="#5f5c5c"/></linearGradient><linearGradient x1="258.98368" y1="182.61266" x2="258.98368" y2="237.36349" gradientUnits="userSpaceOnUse" id="color-2"><stop offset="0" stop-color="#747474"/><stop offset="1" stop-color="#5f5c5c"/></linearGradient><linearGradient x1="306.73834" y1="183.90243" x2="306.73834" y2="237.8794" gradientUnits="userSpaceOnUse" id="color-3"><stop offset="0" stop-color="#747474"/><stop offset="1" stop-color="#5f5c5c"/></linearGradient><linearGradient x1="348.22162" y1="183.5155" x2="348.22162" y2="238.26634" gradientUnits="userSpaceOnUse" id="color-4"><stop offset="0" stop-color="#747474"/><stop offset="1" stop-color="#5f5c5c"/></linearGradient><linearGradient x1="210.46982" y1="178.39445" x2="210.46982" y2="243.38738" gradientUnits="userSpaceOnUse" id="color-5"><stop offset="0" stop-color="#747474"/><stop offset="1" stop-color="#5f5c5c"/></linearGradient><linearGradient x1="143.70521" y1="149.12637" x2="329.07694" y2="149.12637" gradientUnits="userSpaceOnUse" id="color-6"><stop offset="0" stop-color="#ff853a"/><stop offset="1" stop-color="#ff7c2a"/></linearGradient></defs><g transform="translate(-111.6678,-117.65236)"><g data-paper-data="{&quot;isPaintingLayer&quot;:true}" fill-rule="nonzero" stroke-linejoin="miter" stroke-miterlimit="10" stroke-dasharray="" stroke-dashoffset="0" style="mix-blend-mode: normal"><path d="M324.18438,118.15236c0.63086,0.21385 1.55738,0.53211 2.16081,0.77913c0.60343,0.24702 1.58121,0.71106 2.20138,1.01207c0.34285,0.16531 0.43597,0.50023 0.25036,0.81812c-0.22093,0.38388 -0.50734,0.90737 -0.69893,1.37538c-0.1517,0.37062 -0.36989,0.94421 -0.60091,1.57638c0.66417,0.51874 1.25768,1.10841 1.76921,1.75607c0.6302,-0.23852 1.20305,-0.45893 1.57135,-0.61328c0.46776,-0.19407 0.98924,-0.48544 1.36953,-0.70976c0.31853,-0.18859 0.65339,-0.09867 0.82178,0.24209c0.303,0.61499 0.78594,1.61708 1.02828,2.19058c0.24232,0.5735 0.57744,1.52342 0.79642,2.15392c0.12951,0.37477 -0.02272,0.69246 -0.36237,0.78363c-0.44236,0.11847 -1.05064,0.29663 -1.51604,0.49167c-0.36635,0.1496 -0.91611,0.40165 -1.52137,0.6809c0.10306,0.81884 0.10969,1.65645 0.01144,2.49275c0.62696,0.28438 1.20218,0.53927 1.57754,0.69293c0.46801,0.19158 1.04206,0.35445 1.47069,0.46612c0.35582,0.09295 0.53028,0.39181 0.40774,0.75216c-0.22024,0.65322 -0.58571,1.70188 -0.82203,2.27917c-0.23631,0.57729 -0.66979,1.48716 -0.95966,2.0869c-0.17352,0.35614 -0.5053,0.4755 -0.80993,0.2981c-0.39477,-0.22817 -0.95197,-0.53392 -1.41998,-0.7255c-0.37299,-0.15268 -0.95135,-0.37279 -1.59062,-0.60675c-0.51637,0.66514 -1.1084,1.25768 -1.75607,1.7692c0.23854,0.6302 0.45893,1.20305 0.61327,1.57136c0.19407,0.46776 0.48543,0.98924 0.70975,1.36954c0.1886,0.31852 0.09867,0.6534 -0.2421,0.82179c-0.61596,0.30536 -1.61804,0.78833 -2.19155,1.03066c-0.57351,0.24233 -1.5234,0.57744 -2.15392,0.79641c-0.37477,0.1295 -0.69245,-0.02273 -0.78364,-0.36239c-0.11847,-0.44236 -0.29567,-1.053 -0.4907,-1.5184c-0.15295,-0.36494 -0.40402,-0.91708 -0.68424,-1.51997c-0.81884,0.10306 -1.65407,0.11065 -2.49274,0.01143c-0.27617,0.61368 -0.52524,1.17465 -0.67695,1.54526c-0.19061,0.46563 -0.35445,1.04207 -0.46514,1.46831c-0.09393,0.35819 -0.3928,0.53265 -0.75314,0.41011c-0.65225,-0.2226 -1.70187,-0.58572 -2.27916,-0.82203c-0.57729,-0.23632 -1.48716,-0.66978 -2.08593,-0.96204c-0.35711,-0.17114 -0.4755,-0.5053 -0.29906,-0.80754c0.22818,-0.39478 0.5339,-0.95197 0.72548,-1.41997c0.14977,-0.36585 0.36406,-0.92997 0.59313,-1.55738c-0.66514,-0.51637 -1.25768,-1.1084 -1.7692,-1.75607c-0.62588,0.23476 -1.18968,0.45332 -1.55462,0.60626c-0.4654,0.19503 -1.0199,0.50615 -1.41457,0.73848c-0.30317,0.17823 -0.63405,0.06498 -0.8128,-0.29113c-0.29361,-0.59727 -0.73586,-1.50226 -0.97722,-2.07814c-0.25021,-0.6017 -0.61478,-1.62189 -0.8398,-2.27155c-0.12486,-0.35899 0.04582,-0.66081 0.40364,-0.75566c0.42757,-0.11622 1.00096,-0.28369 1.46634,-0.47874c0.36831,-0.15436 0.92714,-0.40824 1.54006,-0.69267c-0.10545,-0.81982 -0.10969,-1.65644 -0.01144,-2.49274c-0.5937,-0.27077 -1.13427,-0.50869 -1.493,-0.65554c-0.46801,-0.19158 -1.07967,-0.36429 -1.52112,-0.47844c-0.33919,-0.08614 -0.49205,-0.4039 -0.36604,-0.77948c0.21148,-0.63182 0.52972,-1.55835 0.77675,-2.16177c0.24702,-0.60343 0.71345,-1.58024 1.01209,-2.20137c0.1653,-0.34286 0.50023,-0.43597 0.82049,-0.24939c0.38149,0.21997 0.90498,0.50637 1.373,0.69796c0.36348,0.14879 0.92283,0.36113 1.54311,0.58729c0.51734,-0.66751 1.10938,-1.26005 1.75705,-1.77158c-0.23811,-0.62449 -0.45428,-1.18729 -0.60722,-1.55224c-0.19505,-0.4654 -0.50616,-1.0199 -0.73848,-1.41456c-0.17823,-0.30317 -0.06401,-0.63644 0.29113,-0.8128c0.59728,-0.29361 1.50227,-0.73586 2.07815,-0.9772c0.60266,-0.25257 1.62189,-0.61478 2.27154,-0.8398c0.35899,-0.12486 0.66081,0.04582 0.75565,0.40364c0.11525,0.42995 0.28369,1.00096 0.47874,1.46635c0.15436,0.36831 0.40823,0.92714 0.69266,1.54006c0.81884,-0.10306 1.65646,-0.1097 2.49276,-0.01144c0.27324,-0.60654 0.51939,-1.16039 0.66915,-1.52624c0.19158,-0.46801 0.36429,-1.07966 0.47843,-1.52111c0.08711,-0.34157 0.40488,-0.49442 0.78045,-0.36842z" fill="#ff853a" stroke="#ce4f00" stroke-width="1" stroke-linecap="butt"/><path d="M368.06224,214.78032c0.45146,0.36163 1.11329,0.89612 1.53253,1.27666c0.41924,0.38054 1.07967,1.04925 1.49655,1.47882c0.2308,0.23659 0.20749,0.53755 -0.03826,0.74197c-0.29415,0.24779 -0.68315,0.59012 -0.9783,0.91528c-0.23372,0.25749 -0.58188,0.66096 -0.95791,1.10839c0.38824,0.62033 0.69779,1.27762 0.92323,1.9579c0.58509,-0.0078 1.11799,-0.0178 1.46435,-0.03457c0.43933,-0.01968 0.95134,-0.10284 1.32825,-0.17315c0.31589,-0.05948 0.56254,0.11323 0.59893,0.44128c0.06493,0.59179 0.16193,1.55287 0.18964,2.09281c0.02771,0.53994 0.01953,1.41458 0.01128,1.99414c-0.00544,0.34429 -0.22389,0.55842 -0.52816,0.53212c-0.39619,-0.03448 -0.94546,-0.06944 -1.38314,-0.04827c-0.34337,0.01346 -0.8668,0.05615 -1.44361,0.10458c-0.15871,0.69887 -0.40169,1.38446 -0.72987,2.03789c0.42737,0.41803 0.82127,0.79663 1.08206,1.03335c0.32516,0.29515 0.7454,0.59831 1.0621,0.81654c0.26285,0.18139 0.31661,0.47704 0.10972,0.73481c-0.37346,0.46782 -0.98272,1.21533 -1.34678,1.61641c-0.36406,0.40109 -0.98767,1.01515 -1.40211,1.41867c-0.24723,0.23921 -0.55342,0.23824 -0.74943,0.00312c-0.25454,-0.30329 -0.61863,-0.71807 -0.94379,-1.01322c-0.25914,-0.23522 -0.66592,-0.58638 -1.11829,-0.9669c-0.61868,0.38974 -1.27761,0.69779 -1.9579,0.92323c0.0078,0.58509 0.0178,1.11799 0.03456,1.46436c0.01968,0.43933 0.10284,0.95133 0.17316,1.32824c0.05948,0.31589 -0.11323,0.56254 -0.44128,0.59893c-0.59329,0.06658 -1.55437,0.16358 -2.09431,0.19129c-0.53994,0.02771 -1.41458,0.01953 -1.99414,0.01128c-0.34429,-0.00544 -0.55842,-0.22389 -0.53211,-0.52815c0.03448,-0.39619 0.07095,-0.94712 0.04977,-1.3848c-0.01661,-0.34322 -0.0578,-0.8683 -0.10772,-1.44346c-0.69887,-0.15871 -1.38282,-0.40019 -2.03789,-0.72987c-0.40738,0.41896 -0.777,0.80296 -1.01072,1.06045c-0.29365,0.32351 -0.59832,0.74539 -0.81505,1.06045c-0.18289,0.2645 -0.47854,0.31826 -0.7363,0.11137c-0.46632,-0.37511 -1.21533,-0.98272 -1.61641,-1.34678c-0.40109,-0.36406 -1.01515,-0.98766 -1.41717,-1.40376c-0.24071,-0.24558 -0.23824,-0.55341 -0.00462,-0.74778c0.30329,-0.25454 0.71807,-0.61863 1.01322,-0.94379c0.23073,-0.25419 0.57289,-0.65106 0.94592,-1.09519c-0.38974,-0.61868 -0.69779,-1.27762 -0.92323,-1.9579c-0.58044,0.006 -1.1054,0.0172 -1.44861,0.0338c-0.43768,0.02118 -0.98251,0.11067 -1.37352,0.18325c-0.30031,0.05556 -0.53676,-0.13498 -0.57707,-0.47864c-0.06252,-0.57455 -0.1551,-1.44432 -0.18131,-1.98591c-0.02578,-0.56528 -0.0208,-1.50605 -0.01181,-2.103c0.00455,-0.33004 0.23336,-0.52575 0.55352,-0.49705c0.38344,0.03194 0.90108,0.06529 1.33876,0.04411c0.34637,-0.01676 0.87775,-0.05826 1.46235,-0.10863c0.15705,-0.70037 0.40169,-1.38446 0.72987,-2.03789c-0.40426,-0.39705 -0.77491,-0.75154 -1.02414,-0.97776c-0.32516,-0.29515 -0.77315,-0.61749 -1.09961,-0.84155c-0.25129,-0.1709 -0.28182,-0.47557 -0.0676,-0.74473c0.35998,-0.45296 0.89448,-1.11479 1.27502,-1.53404c0.38054,-0.41924 1.0509,-1.07818 1.47882,-1.49655c0.23659,-0.2308 0.53755,-0.20749 0.74362,0.03976c0.24614,0.29266 0.58846,0.68166 0.91362,0.9768c0.25253,0.22922 0.64611,0.5684 1.08528,0.93694c0.62018,-0.39139 1.27911,-0.69944 1.9594,-0.92488c-0.00915,-0.58029 -0.01869,-1.10375 -0.0353,-1.44696c-0.02118,-0.43768 -0.11067,-0.98252 -0.18324,-1.37352c-0.05556,-0.30031 0.13648,-0.53841 0.47864,-0.57707c0.57455,-0.06252 1.44432,-0.1551 1.98591,-0.18131c0.56678,-0.02743 1.50605,-0.0208 2.103,-0.01181c0.33004,0.00455 0.52574,0.23336 0.49705,0.55352c-0.03344,0.38509 -0.06528,0.90108 -0.0441,1.33876c0.01676,0.34637 0.05825,0.87774 0.10863,1.46235c0.69887,0.15871 1.38447,0.40169 2.03789,0.72987c0.40289,-0.41401 0.76802,-0.79305 0.99874,-1.04724c0.29515,-0.32516 0.61749,-0.77315 0.84155,-1.09961c0.1724,-0.25294 0.47707,-0.28347 0.74623,-0.06925z" fill="#626060" stroke="#434343" stroke-width="0.75" stroke-linecap="butt"/><path d="M138.16132,184.23401c0.22924,0.62247 0.56271,1.53926 0.7491,2.16123c0.18639,0.62196 0.43902,1.66973 0.59407,2.33846c0.08657,0.36901 -0.11453,0.65077 -0.47692,0.706c-0.4356,0.06917 -1.02032,0.17502 -1.50272,0.31958c-0.38199,0.11448 -0.96283,0.30456 -1.59704,0.52131c0.01396,0.83909 -0.07124,1.66787 -0.25266,2.46945c0.57921,0.33878 1.10848,0.64451 1.45856,0.83314c0.4431,0.24081 0.99517,0.46231 1.40695,0.61644c0.34544,0.12865 0.48541,0.44429 0.32689,0.78801c-0.28665,0.61962 -0.76047,1.62092 -1.05297,2.16758c-0.2925,0.54666 -0.81843,1.40078 -1.1697,1.96505c-0.2092,0.33489 -0.55054,0.41584 -0.83377,0.20983c-0.36866,-0.26846 -0.88739,-0.62804 -1.32976,-0.8664c-0.34518,-0.1901 -0.8845,-0.45811 -1.47964,-0.7521c-0.56969,0.59237 -1.21428,1.12178 -1.92348,1.56916c0.17218,0.66358 0.33483,1.26865 0.45078,1.65554c0.14457,0.48239 0.37775,1.02896 0.55956,1.4308c0.15073,0.33377 0.02845,0.65595 -0.32734,0.7866c-0.64377,0.2383 -1.68472,0.61163 -2.27975,0.78996c-0.59502,0.17832 -1.57105,0.41211 -2.217,0.563c-0.38444,0.08853 -0.68456,-0.09373 -0.73784,-0.4407c-0.07039,-0.44857 -0.18235,-1.0715 -0.32691,-1.55389c-0.11521,-0.38445 -0.30676,-0.97017 -0.52571,-1.61173c-0.83836,0.01641 -1.66787,-0.07124 -2.46945,-0.25265c-0.33878,0.57921 -0.64451,1.10848 -0.83314,1.45856c-0.24081,0.4431 -0.46231,0.99517 -0.61644,1.40695c-0.12865,0.34544 -0.44429,0.48541 -0.78801,0.32689c-0.62207,-0.28591 -1.62336,-0.75973 -2.17002,-1.05223c-0.54666,-0.2925 -1.40078,-0.81843 -1.96505,-1.1697c-0.33489,-0.2092 -0.41584,-0.55054 -0.20983,-0.83377c0.26846,-0.36866 0.63049,-0.88812 0.86885,-1.3305c0.18691,-0.34689 0.45738,-0.88695 0.74892,-1.48135c-0.59237,-0.56969 -1.12105,-1.21182 -1.56916,-1.92348c-0.64816,0.17022 -1.23853,0.32847 -1.62052,0.44295c-0.47994,0.14383 -1.02895,0.37774 -1.42835,0.55882c-0.33622,0.15147 -0.6584,0.02919 -0.78905,-0.3266c-0.23585,-0.6445 -0.61163,-1.68472 -0.78996,-2.27975c-0.17832,-0.59502 -0.41211,-1.57105 -0.56056,-2.21774c-0.09097,-0.38371 0.09373,-0.68456 0.43824,-0.7371c0.44857,-0.07039 1.0715,-0.18235 1.55389,-0.32691c0.3771,-0.11301 0.94813,-0.30016 1.57745,-0.51544c-0.01641,-0.83836 0.07124,-1.66787 0.25265,-2.46945c-0.57358,-0.33781 -1.09575,-0.63765 -1.44265,-0.82457c-0.44237,-0.23836 -1.03043,-0.47309 -1.45739,-0.63334c-0.32781,-0.12325 -0.44721,-0.4504 -0.28331,-0.81175c0.27881,-0.60127 0.7029,-1.51026 0.99785,-2.05765c0.30941,-0.5704 0.87135,-1.49135 1.23364,-2.07227c0.19989,-0.32142 0.54049,-0.37814 0.83791,-0.16038c0.35765,0.25842 0.84627,0.59767 1.28863,0.83603c0.35008,0.18863 0.89649,0.46253 1.50044,0.75921c0.56895,-0.59482 1.21428,-1.12178 1.92348,-1.56916c-0.16191,-0.6293 -0.316,-1.1969 -0.42681,-1.56665c-0.14457,-0.48239 -0.39366,-1.06422 -0.58158,-1.47757c-0.14559,-0.31663 0.00483,-0.63391 0.37459,-0.7714c0.62174,-0.2317 1.53854,-0.56516 2.1605,-0.75156c0.62196,-0.18639 1.67046,-0.43657 2.33846,-0.59407c0.36901,-0.08657 0.65077,0.11453 0.70673,0.47937c0.06844,0.43316 0.17428,1.01788 0.31885,1.50027c0.11228,0.37465 0.29796,0.94078 0.51104,1.56275c0.84081,-0.01715 1.67033,0.0705 2.4719,0.25191c0.33462,-0.5753 0.6352,-1.09501 0.82212,-1.44191c0.23836,-0.44237 0.47309,-1.03043 0.63335,-1.45739c0.12325,-0.32781 0.45285,-0.44795 0.81175,-0.28331c0.60127,0.27881 1.51026,0.7029 2.05765,0.99785c0.57285,0.30867 1.49135,0.87135 2.07227,1.23364c0.32142,0.19989 0.37814,0.54049 0.16038,0.83791c-0.26087,0.35838 -0.59767,0.84627 -0.83603,1.28863c-0.18863,0.35008 -0.46253,0.89649 -0.75921,1.50044c0.59237,0.56969 1.12178,1.21427 1.56917,1.92347c0.64082,-0.16802 1.22383,-0.32407 1.60093,-0.43708c0.48239,-0.14457 1.06422,-0.39366 1.47757,-0.58158c0.31907,-0.14633 0.63635,0.0041 0.77386,0.37385z" fill="#737373" stroke="#434343" stroke-width="0.75" stroke-linecap="butt"/><path d="M326.0826,207.3706c0.04527,0.73289 0.10753,1.811 0.10753,2.52974c0,0.71874 -0.06509,1.91005 -0.11319,2.6684c-0.02547,0.4188 -0.32825,0.65366 -0.73006,0.59707c-0.48388,-0.06508 -1.13754,-0.13865 -1.69499,-0.13865c-0.44143,0 -1.11773,0.01698 -1.85911,0.04527c-0.25184,0.89418 -0.60556,1.74593 -1.05265,2.53824c0.50652,0.5433 0.97059,1.03567 1.28186,1.34693c0.39333,0.39616 0.90833,0.80647 1.296,1.10076c0.32542,0.24618 0.37352,0.62536 0.09621,0.93946c-0.50086,0.56594 -1.32147,1.4771 -1.80535,1.96381c-0.48388,0.48671 -1.31298,1.22526 -1.86477,1.71197c-0.32825,0.28863 -0.71591,0.26599 -0.95078,-0.04245c-0.30561,-0.40182 -0.74138,-0.94794 -1.13471,-1.34127c-0.30561,-0.31127 -0.79232,-0.76685 -1.32996,-1.2677c-0.79231,0.44709 -1.64405,0.80363 -2.53824,1.05265c-0.0283,0.75836 -0.0481,1.45163 -0.0481,1.89872c0,0.55745 0.07358,1.21111 0.13866,1.69499c0.05376,0.40182 -0.17827,0.7046 -0.59707,0.73006c-0.75836,0.0481 -1.98079,0.11319 -2.6684,0.11319c-0.68762,0 -1.79686,-0.06225 -2.52975,-0.10753c-0.43578,-0.0283 -0.6961,-0.31693 -0.64234,-0.70177c0.06791,-0.49802 0.14715,-1.19413 0.14715,-1.75158c0,-0.44426 -0.01698,-1.12622 -0.04527,-1.87609c-0.89418,-0.24901 -1.74593,-0.60555 -2.53824,-1.05265c-0.5433,0.50652 -1.03567,0.97059 -1.34694,1.28186c-0.39616,0.39333 -0.80646,0.90833 -1.10075,1.296c-0.24618,0.32542 -0.62536,0.37352 -0.93946,0.09621c-0.56877,-0.50086 -1.47993,-1.32147 -1.96664,-1.80535c-0.48671,-0.48388 -1.22526,-1.31298 -1.71197,-1.86477c-0.28863,-0.32825 -0.26599,-0.71591 0.04245,-0.95077c0.40182,-0.30561 0.95078,-0.74138 1.34411,-1.13471c0.30844,-0.30844 0.76685,-0.79515 1.26488,-1.33279c-0.44709,-0.79231 -0.80364,-1.64123 -1.05265,-2.53824c-0.74138,-0.02547 -1.41767,-0.04527 -1.85911,-0.04527c-0.55462,0 -1.21111,0.07357 -1.69216,0.13865c-0.40465,0.05376 -0.70743,-0.17827 -0.73289,-0.59707c-0.04527,-0.75836 -0.11319,-1.98079 -0.11319,-2.6684c0,-0.68762 0.06225,-1.79685 0.11036,-2.52974c0.02547,-0.43578 0.31692,-0.6961 0.69893,-0.64234c0.49802,0.06791 1.19413,0.14715 1.75158,0.14715c0.43578,0 1.10075,-0.01699 1.83647,-0.04528c0.24901,-0.89418 0.60556,-1.74593 1.05265,-2.53824c-0.50086,-0.54047 -0.95927,-1.02435 -1.2677,-1.33279c-0.39333,-0.39333 -0.94229,-0.82909 -1.34411,-1.1347c-0.30844,-0.23487 -0.33108,-0.6197 -0.04245,-0.95078c0.48671,-0.54896 1.22526,-1.37806 1.71197,-1.86477c0.50935,-0.50652 1.39787,-1.30449 1.96664,-1.80535c0.3141,-0.27731 0.69328,-0.22921 0.93946,0.09621c0.29712,0.38767 0.70742,0.90267 1.10075,1.296c0.31127,0.31127 0.80364,0.77534 1.34977,1.28186c0.79231,-0.44992 1.64405,-0.80363 2.53824,-1.05265c0.0283,-0.71874 0.04527,-1.36958 0.04527,-1.79686c0,-0.55745 -0.07923,-1.25356 -0.14715,-1.75158c-0.05376,-0.38201 0.20657,-0.67064 0.64234,-0.69893c0.73289,-0.0481 1.81101,-0.11036 2.52975,-0.11036c0.71874,0 1.91005,0.06791 2.6684,0.11319c0.4188,0.02547 0.65366,0.32825 0.59707,0.73289c-0.06508,0.48105 -0.13866,1.13471 -0.13866,1.69216c0,0.43294 0.01698,1.09226 0.04527,1.8195c0.89701,0.24901 1.74876,0.60555 2.54107,1.05265c0.53764,-0.50369 1.02152,-0.95927 1.32996,-1.2677c0.39333,-0.39333 0.8291,-0.94229 1.13471,-1.3441c0.23487,-0.30844 0.62253,-0.33108 0.95078,-0.04245c0.54896,0.48671 1.37806,1.22526 1.86477,1.71197c0.50935,0.50935 1.30449,1.39787 1.80535,1.96664c0.27731,0.3141 0.2292,0.69327 -0.09621,0.93946c-0.39049,0.29712 -0.90267,0.70743 -1.296,1.10076c-0.31127,0.31127 -0.77534,0.80363 -1.28186,1.34976c0.44709,0.79231 0.80364,1.64405 1.05265,2.53824c0.73289,0.02547 1.40069,0.04528 1.83647,0.04528c0.55745,0 1.25356,-0.07923 1.75158,-0.14715c0.38484,-0.05376 0.67347,0.20657 0.70177,0.64234z" fill="#6a6969" stroke="#434343" stroke-width="0.75" stroke-linecap="butt"/><path d="M187.29575,185.5791l-8.77045,52.10682l-21.34574,0.45142l-4.5787,-27.02074l-4.5787,25.08608l-21.34573,0.70937l-8.89943,-51.33295l18.63721,-1.6767l3.74034,31.2125l5.0946,-31.2125h14.63892l5.86847,31.59943l2.96648,-31.59943z" fill="url(#color-1)" stroke="#434343" stroke-width="1.5" stroke-linecap="butt"/><path d="M281.16778,201.50781c0,1.93466 -0.17195,3.69736 -0.5159,5.28807c-0.34395,1.59071 -0.88135,3.05246 -1.61222,4.38522c-0.73088,1.33276 -1.6767,2.57954 -2.8375,3.74034c-1.11781,1.11781 -2.49356,2.19262 -4.12728,3.22444l8.96393,15.92869l-16.96051,3.28892l-5.73949,-15.99318l-4.70768,0.12898l-0.64488,15.67074h-16.18665c0.12898,-5.71798 0.23646,-11.41448 0.32245,-17.08948c0.12898,-5.675 0.27946,-11.37151 0.45142,-17.08949c0.04298,-2.88048 0.08599,-5.73949 0.12898,-8.57699c0.04298,-2.8375 0.15048,-5.69651 0.32244,-8.57699c1.7627,-0.64488 3.48239,-1.18229 5.15909,-1.61221c1.71969,-0.42992 3.4394,-0.75236 5.15909,-0.96733c1.71969,-0.25796 3.46088,-0.42992 5.22358,-0.51591c1.7627,-0.08599 3.56838,-0.12897 5.41705,-0.12897c2.88048,0 5.65349,0.40843 8.31903,1.22528c2.66554,0.77387 5.00862,1.95616 7.02927,3.54688c2.06363,1.54773 3.71884,3.5039 4.96563,5.86847c1.24679,2.36458 1.87016,5.11611 1.87016,8.25455zM264.33627,202.7331c0,-1.0748 -0.15048,-2.04214 -0.45142,-2.90199c-0.30094,-0.90284 -0.73088,-1.6552 -1.28978,-2.2571c-0.5589,-0.64488 -1.26827,-1.13929 -2.12813,-1.48324c-0.81685,-0.38693 -1.78418,-0.5804 -2.90199,-0.5804c-0.51591,0 -1.01031,0.04299 -1.48324,0.12898c-0.47292,0.04298 -0.92435,0.12897 -1.35426,0.25795l-0.64488,13.92955h0.90284c1.0748,0 2.17111,-0.12897 3.28892,-0.38693c1.11781,-0.25796 2.12812,-0.66639 3.03096,-1.22529c0.90284,-0.6019 1.63372,-1.35426 2.19262,-2.2571c0.5589,-0.90284 0.83835,-1.97764 0.83835,-3.22443z" fill="url(#color-2)" stroke="#434343" stroke-width="1.5" stroke-linecap="butt"/><path d="M329.95427,189.19048l-16.57358,19.73352l15.21931,25.92443l-17.41193,3.03097l-11.41449,-15.47727l-0.64488,14.7679l-15.60625,0.5804l1.16079,-53.848l17.54091,0.96732l-1.35426,15.47727l10.89858,-15.67074z" fill="url(#color-3)" stroke="#434343" stroke-width="1.5" stroke-linecap="butt"/><path d="M367.92291,218.46832c0,3.4394 -0.6019,6.40589 -1.80568,8.89944c-1.1608,2.49355 -2.77301,4.5572 -4.83665,6.19091c-2.06363,1.63371 -4.4927,2.83749 -7.28722,3.61136c-2.75151,0.73087 -5.71798,1.09631 -8.89943,1.09631c-1.24679,0 -2.60105,-0.17196 -4.06278,-0.51591c-1.46173,-0.30094 -2.94497,-0.68787 -4.44972,-1.16079c-1.50474,-0.51591 -2.96648,-1.05332 -4.38523,-1.61221c-1.37577,-0.5589 -2.60106,-1.09631 -3.67586,-1.61222l1.67671,-14.70341c2.14963,1.28977 4.51421,2.2571 7.09375,2.90199c2.57954,0.64488 5.13759,0.96733 7.67415,0.96733c0.47292,0 1.03182,0 1.6767,0c0.68788,-0.04298 1.33276,-0.15048 1.93466,-0.32244c0.64488,-0.21497 1.1608,-0.51591 1.54773,-0.90284c0.42992,-0.38693 0.64488,-0.92434 0.64488,-1.61221c0,-0.47293 -0.15048,-0.88134 -0.45142,-1.22529c-0.30094,-0.34395 -0.68787,-0.62338 -1.1608,-0.83835c-0.47292,-0.21497 -1.01031,-0.36543 -1.61221,-0.45143c-0.6019,-0.12897 -1.1823,-0.21497 -1.74119,-0.25795c-0.5589,-0.04298 -1.09631,-0.06449 -1.61222,-0.06449c-0.51591,0 -0.92434,0 -1.22528,0c-2.14963,0 -4.10577,-0.34394 -5.86847,-1.03181c-1.7627,-0.68787 -3.28892,-1.63371 -4.57869,-2.8375c-1.24679,-1.24679 -2.2356,-2.75151 -2.96647,-4.51421c-0.68788,-1.80569 -1.03183,-3.78333 -1.03183,-5.93295c0,-2.92349 0.6019,-5.56753 1.80568,-7.93211c1.20378,-2.36458 2.79451,-4.36373 4.77215,-5.99744c1.97764,-1.63371 4.25626,-2.88048 6.8358,-3.74034c2.62254,-0.90284 5.30957,-1.35426 8.06108,-1.35426c1.20378,0 2.45057,0.04299 3.74034,0.12898c1.33276,0.08599 2.64403,0.25795 3.93381,0.51591c1.28978,0.21497 2.53656,0.49441 3.74034,0.83836c1.24679,0.34395 2.42906,0.77386 3.54688,1.28977l-1.41875,15.28381c-1.71969,-0.5589 -3.52537,-1.03181 -5.41705,-1.41875c-1.84867,-0.38693 -3.65434,-0.5804 -5.41704,-0.5804c-0.34395,0 -0.77387,0 -1.28978,0c-0.51591,0 -1.05332,0.04299 -1.61221,0.12898c-0.5589,0.04298 -1.13929,0.12897 -1.74119,0.25795c-0.5589,0.12897 -1.0748,0.30094 -1.54772,0.51591c-0.42992,0.21497 -0.79537,0.49441 -1.09631,0.83836c-0.25795,0.34395 -0.36543,0.75236 -0.32244,1.22529c0,0.5589 0.19346,0.98883 0.5804,1.28977c0.42992,0.30094 0.94583,0.53741 1.54773,0.70937c0.6019,0.12897 1.26827,0.19347 1.99914,0.19347c0.73088,0 1.46173,-0.0215 2.19261,-0.06449c0.73088,-0.04298 1.39725,-0.08599 1.99915,-0.12898c0.64488,-0.04298 1.1823,-0.04298 1.61222,0c1.97764,0.12897 3.76184,0.5589 5.35255,1.28977c1.63371,0.68787 3.00946,1.63371 4.12727,2.8375c1.11781,1.20379 1.95616,2.64404 2.51505,4.32075c0.6019,1.6767 0.90285,3.50388 0.90285,5.48153z" fill="url(#color-4)" stroke="#434343" stroke-width="1.5" stroke-linecap="butt"/><path d="M242.74119,205.41165c0.09478,1.53419 0.22509,3.79106 0.22509,5.29563c0,1.50458 -0.13624,3.99838 -0.23694,5.58589c-0.05331,0.87668 -0.68713,1.36833 -1.52827,1.24986c-1.01292,-0.13624 -2.38126,-0.29025 -3.54819,-0.29025c-0.92407,0 -2.33979,0.03554 -3.89176,0.09478c-0.52719,1.87183 -1.26763,3.65482 -2.20355,5.3134c1.06031,1.13732 2.03177,2.16801 2.68336,2.8196c0.82337,0.82929 1.90145,1.6882 2.71297,2.30425c0.68121,0.51535 0.78191,1.3091 0.2014,1.96661c-1.04846,1.18471 -2.76629,3.09208 -3.77921,4.11093c-1.01292,1.01885 -2.74852,2.56489 -3.9036,3.58373c-0.68713,0.6042 -1.49865,0.55681 -1.9903,-0.08885c-0.63974,-0.84114 -1.55196,-1.98438 -2.37533,-2.80775c-0.63974,-0.65159 -1.65859,-1.60528 -2.78406,-2.65374c-1.65859,0.93592 -3.44157,1.68228 -5.3134,2.20355c-0.05924,1.58751 -0.1007,3.03877 -0.1007,3.97469c0,1.16693 0.15401,2.53527 0.29025,3.54819c0.11255,0.84114 -0.37318,1.47496 -1.24986,1.52827c-1.58751,0.1007 -4.14647,0.23694 -5.58589,0.23694c-1.43942,0 -3.76144,-0.13032 -5.29563,-0.22509c-0.91222,-0.05924 -1.45719,-0.66343 -1.34464,-1.46903c0.14216,-1.04254 0.30802,-2.49973 0.30802,-3.66666c0,-0.92999 -0.03554,-2.35756 -0.09478,-3.9273c-1.87183,-0.52127 -3.65482,-1.26763 -5.3134,-2.20355c-1.13732,1.06031 -2.16801,2.03177 -2.8196,2.68336c-0.82929,0.82337 -1.6882,1.90145 -2.30425,2.71297c-0.51535,0.68121 -1.3091,0.78191 -1.96661,0.2014c-1.19063,-1.04846 -3.098,-2.76629 -4.11685,-3.77921c-1.01885,-1.01292 -2.56489,-2.74852 -3.58373,-3.9036c-0.6042,-0.68713 -0.55681,-1.49865 0.08885,-1.9903c0.84114,-0.63974 1.9903,-1.55196 2.81367,-2.37533c0.64566,-0.64566 1.60528,-1.66451 2.64782,-2.78998c-0.93592,-1.65859 -1.68228,-3.43565 -2.20355,-5.3134c-1.55196,-0.05331 -2.96769,-0.09478 -3.89176,-0.09478c-1.16101,0 -2.53527,0.15401 -3.54227,0.29025c-0.84706,0.11255 -1.48088,-0.37318 -1.53419,-1.24986c-0.09478,-1.58751 -0.23694,-4.14647 -0.23694,-5.58589c0,-1.43942 0.13032,-3.76144 0.23102,-5.29563c0.05331,-0.91222 0.66343,-1.45719 1.46311,-1.34464c1.04254,0.14216 2.49973,0.30802 3.66666,0.30802c0.91222,0 2.30425,-0.03554 3.84437,-0.09478c0.52127,-1.87183 1.26763,-3.65482 2.20355,-5.3134c-1.04846,-1.13139 -2.00808,-2.14432 -2.65374,-2.78998c-0.82337,-0.82337 -1.97253,-1.73559 -2.81367,-2.37533c-0.64566,-0.49165 -0.69305,-1.29725 -0.08885,-1.9903c1.01885,-1.14916 2.56489,-2.88476 3.58373,-3.9036c1.06623,-1.06031 2.92622,-2.73075 4.11685,-3.77921c0.65751,-0.58051 1.45126,-0.47981 1.96661,0.2014c0.62197,0.81152 1.48088,1.8896 2.30425,2.71297c0.65159,0.65159 1.68228,1.62305 2.82552,2.68336c1.65859,-0.94184 3.44157,-1.68228 5.3134,-2.20355c0.05924,-1.50458 0.09478,-2.86699 0.09478,-3.76144c0,-1.16693 -0.16586,-2.62412 -0.30802,-3.66666c-0.11255,-0.79968 0.43242,-1.40388 1.34464,-1.46311c1.53419,-0.1007 3.79106,-0.23102 5.29563,-0.23102c1.50458,0 3.99838,0.14216 5.58589,0.23694c0.87668,0.05331 1.36833,0.68713 1.24986,1.53419c-0.13624,1.007 -0.29025,2.37533 -0.29025,3.54227c0,0.9063 0.03554,2.28648 0.09478,3.80883c1.87776,0.52127 3.66074,1.26763 5.31933,2.20355c1.12547,-1.05439 2.13839,-2.00808 2.78406,-2.65374c0.82337,-0.82337 1.73559,-1.97253 2.37533,-2.81367c0.49165,-0.64566 1.30318,-0.69305 1.9903,-0.08885c1.14916,1.01885 2.88476,2.56489 3.9036,3.58373c1.06623,1.06623 2.73075,2.92622 3.77921,4.11685c0.58051,0.65751 0.47981,1.45126 -0.2014,1.96661c-0.81745,0.62197 -1.8896,1.48088 -2.71297,2.30425c-0.65159,0.65159 -1.62305,1.68228 -2.68336,2.82552c0.93592,1.65859 1.68228,3.44157 2.20355,5.3134c1.53419,0.05331 2.93215,0.09478 3.84437,0.09478c1.16693,0 2.62412,-0.16586 3.66666,-0.30802c0.8056,-0.11255 1.4098,0.43242 1.46903,1.34464zM210.42835,202.30772c-4.78621,0 -8.63058,4.03392 -8.32255,8.88529c0.26656,4.15239 3.64889,7.52288 7.80128,7.77759c4.84544,0.29618 8.8616,-3.54227 8.8616,-8.32255c0,-4.60258 -3.55412,-8.34032 -8.34032,-8.34032z" fill="url(#color-5)" stroke="#434343" stroke-width="1.5" stroke-linecap="butt"/><path d="M171.98379,163.04849c0.27625,0.68034 0.67849,1.68254 0.90731,2.36389c0.22882,0.68135 0.54639,1.83138 0.74223,2.5656c0.10919,0.40512 -0.10307,0.72415 -0.50199,0.79842c-0.47942,0.09235 -1.12249,0.23072 -1.65094,0.40819c-0.41847,0.14054 -1.05416,0.37193 -1.74797,0.6348c0.04593,0.92784 -0.0182,1.84786 -0.1898,2.74129c0.65313,0.35377 1.2498,0.67278 1.64397,0.86876c0.49898,0.25032 1.11782,0.47532 1.579,0.63088c0.38686,0.12978 0.55318,0.47391 0.39029,0.85994c-0.29462,0.69594 -0.78246,1.82095 -1.0862,2.43639c-0.30375,0.61543 -0.85459,1.57952 -1.22271,2.21656c-0.21928,0.37811 -0.59398,0.48007 -0.91481,0.26246c-0.41762,-0.28361 -1.00459,-0.66259 -1.50267,-0.91024c-0.3888,-0.19778 -0.99523,-0.47471 -1.66435,-0.77833c-0.60875,0.67607 -1.30266,1.28523 -2.07104,1.80596c0.21461,0.72791 0.41654,1.39142 0.55888,1.81525c0.17747,0.52844 0.45532,1.12466 0.67106,1.56266c0.17889,0.36379 0.05532,0.72469 -0.33357,0.88216c-0.70359,0.28704 -1.84169,0.73791 -2.49353,0.95682c-0.65184,0.21891 -1.72318,0.51304 -2.43235,0.70345c-0.42211,0.11191 -0.76078,-0.07881 -0.83233,-0.46076c-0.09417,-0.49373 -0.24069,-1.17884 -0.41816,-1.70728c-0.14144,-0.42115 -0.37464,-1.06221 -0.6402,-1.76406c-0.92694,0.04862 -1.84786,-0.0182 -2.74129,-0.1898c-0.35377,0.65313 -0.67278,1.2498 -0.86876,1.64397c-0.25032,0.49898 -0.47532,1.11782 -0.63088,1.579c-0.12978,0.38686 -0.47391,0.55318 -0.85994,0.39029c-0.69862,-0.29372 -1.82363,-0.78156 -2.43907,-1.0853c-0.61543,-0.30375 -1.57952,-0.85459 -2.21656,-1.22271c-0.37811,-0.21928 -0.48007,-0.59398 -0.26246,-0.91481c0.28361,-0.41762 0.66527,-1.00549 0.91292,-1.50357c0.19419,-0.39058 0.47381,-0.99791 0.77475,-1.66613c-0.67607,-0.60875 -1.28432,-1.29998 -1.80596,-2.07104c-0.71091,0.21189 -1.35833,0.40841 -1.7768,0.54895c-0.52576,0.17657 -1.12466,0.45532 -1.55997,0.67016c-0.36647,0.17979 -0.72737,0.05622 -0.88484,-0.33267c-0.28436,-0.70449 -0.73791,-1.84169 -0.95682,-2.49353c-0.21891,-0.65184 -0.51304,-1.72318 -0.70077,-2.43325c-0.1146,-0.42121 0.07881,-0.76078 0.45807,-0.83143c0.49373,-0.09417 1.17884,-0.24069 1.70728,-0.41816c0.4131,-0.13873 1.03807,-0.36653 1.7265,-0.62759c-0.04862,-0.92694 0.0182,-1.84786 0.1898,-2.74129c-0.64686,-0.3529 -1.23547,-0.66565 -1.62605,-0.85985c-0.49808,-0.24764 -1.15721,-0.48597 -1.63542,-0.64775c-0.36715,-0.12444 -0.51114,-0.48206 -0.34292,-0.88779c0.28661,-0.67534 0.72279,-1.69643 1.02922,-2.31276c0.32158,-0.64232 0.90983,-1.68165 1.28956,-2.33752c0.20946,-0.36287 0.58422,-0.438 0.9212,-0.20788c0.40507,0.2729 0.95799,0.63049 1.45607,0.87812c0.39418,0.19598 1.00866,0.47915 1.68763,0.78544c0.60785,-0.67876 1.30266,-1.28523 2.07104,-1.80596c-0.202,-0.69035 -0.3931,-1.31272 -0.52913,-1.71778c-0.17747,-0.52844 -0.4742,-1.16311 -0.69712,-1.6136c-0.17259,-0.34501 -0.01769,-0.70151 0.3864,-0.86707c0.67944,-0.27893 1.68164,-0.68117 2.36299,-0.90999c0.68135,-0.22882 1.83228,-0.54371 2.5656,-0.74223c0.40512,-0.10919 0.72415,0.10307 0.79932,0.50467c0.09145,0.47674 0.22981,1.1198 0.40729,1.64826c0.13783,0.41042 0.36383,1.03002 0.62218,1.7104c0.92962,-0.04952 1.85054,0.0173 2.74397,0.1889c0.34931,-0.64865 0.66297,-1.23457 0.85717,-1.62515c0.24764,-0.49808 0.48597,-1.15721 0.64775,-1.63542c0.12444,-0.36715 0.48474,-0.51204 0.88779,-0.34292c0.67534,0.28661 1.69643,0.72279 2.31276,1.02922c0.64499,0.32068 1.68165,0.90983 2.33752,1.28956c0.36287,0.20946 0.438,0.58422 0.20788,0.9212c-0.27559,0.40597 -0.63049,0.95799 -0.87812,1.45607c-0.19598,0.39418 -0.47915,1.00866 -0.78544,1.68763c0.67607,0.60875 1.28523,1.30266 1.80596,2.07104c0.70286,-0.20919 1.34224,-0.40301 1.75533,-0.54174c0.52844,-0.17747 1.16311,-0.4742 1.6136,-0.69712c0.34769,-0.17349 0.70418,-0.01859 0.86975,0.3855z" fill="#ff853a" stroke="#ce4f00" stroke-width="1" stroke-linecap="butt"/><path d="M190.89298,168.83115c-1.16673,1.46921 -2.61434,2.76557 -4.34283,3.8891c-1.72849,1.12353 -3.60822,2.05258 -5.6392,2.78719c-1.98775,0.73461 -4.01874,1.27475 -6.09293,1.62046c-2.07419,0.34571 -4.06195,0.51854 -5.96329,0.51854c-3.67303,0 -7.04359,-0.64818 -10.11166,-1.94455c-3.06807,-1.29637 -5.72563,-3.08967 -7.97266,-5.37993c-2.20382,-2.33346 -3.93231,-5.05584 -5.18547,-8.16711c-1.25316,-3.11128 -1.87974,-6.48183 -1.87974,-10.11166c0,-2.72237 0.30248,-5.40153 0.90746,-8.03748c0.64819,-2.63594 1.55564,-5.12065 2.72237,-7.45411c1.16673,-2.33346 2.59274,-4.47247 4.27802,-6.41702c1.68527,-1.94455 3.58662,-3.62983 5.70401,-5.05583c2.16062,-1.42601 4.51567,-2.52791 7.0652,-3.30573c2.54953,-0.77782 5.2719,-1.16673 8.16711,-1.16673c1.0803,0 2.22544,0.0432 3.43537,0.12963c1.25316,0.08643 2.48471,0.23766 3.69465,0.45373c1.25316,0.21607 2.44149,0.51855 3.56501,0.90745c1.16673,0.38891 2.24703,0.84265 3.24092,1.36119l-1.10191,14.45449c-1.3828,-0.51854 -2.83039,-0.86425 -4.34283,-1.03709c-1.51244,-0.21607 -2.98165,-0.32409 -4.40765,-0.32409c-2.03098,0 -3.9323,0.32409 -5.70401,0.97227c-1.72849,0.60498 -3.24092,1.49082 -4.53728,2.65755c-1.29637,1.12353 -2.33346,2.52792 -3.11128,4.21319c-0.73461,1.64207 -1.10191,3.5218 -1.10191,5.6392c0,1.29637 0.17284,2.57112 0.51855,3.82429c0.38891,1.20994 0.92907,2.29026 1.62046,3.24092c0.73461,0.90745 1.62046,1.66366 2.65756,2.26864c1.0803,0.56175 2.33346,0.84264 3.75946,0.84264c0.95066,0 1.92294,-0.12964 2.91683,-0.38891c1.03709,-0.25928 1.92294,-0.69138 2.65756,-1.29637l0.19446,-2.91683l-9.07457,-0.12964l0.45373,-11.34322c3.75947,-0.12964 7.49732,-0.23766 11.21358,-0.32409c3.75947,-0.08643 7.54054,-0.21607 11.34321,-0.38891zM235.94168,146.01509c0,2.20382 -0.15124,4.38603 -0.45372,6.54665c-4.27801,0.30248 -8.55603,0.7562 -12.83404,1.36119c-4.2348,0.60498 -8.49121,1.20994 -12.76922,1.81492c0.64819,1.81492 1.66366,3.26253 3.04646,4.34283c1.42601,1.0803 3.11129,1.62046 5.05584,1.62046c0.99389,0 2.0958,-0.17284 3.30573,-0.51855c1.20994,-0.38891 2.39828,-0.86426 3.56501,-1.42601c1.16673,-0.56175 2.29026,-1.16672 3.37055,-1.81491c1.12353,-0.69139 2.07419,-1.29637 2.85201,-1.81492l-1.81492,17.17687c-0.99389,0.73461 -2.07419,1.3828 -3.24092,1.94455c-1.12353,0.51854 -2.31185,0.95066 -3.56501,1.29637c-1.20994,0.30248 -2.4631,0.51854 -3.75947,0.64818c-1.25316,0.17284 -2.48471,0.25928 -3.69465,0.25928c-2.4631,0 -4.73174,-0.32409 -6.80593,-0.97227c-2.07419,-0.69139 -3.95392,-1.64208 -5.6392,-2.85201c-1.64207,-1.25316 -3.11128,-2.70076 -4.40765,-4.34283c-1.25316,-1.68527 -2.29026,-3.50019 -3.11128,-5.44474c-0.82102,-1.98775 -1.44762,-4.06195 -1.87973,-6.22257c-0.43212,-2.20382 -0.64818,-4.42926 -0.64818,-6.67629c0,-2.33346 0.21606,-4.66692 0.64818,-7.00038c0.43212,-2.37667 1.0803,-4.64531 1.94455,-6.80593c0.86425,-2.16062 1.94455,-4.16999 3.24092,-6.02811c1.33957,-1.85812 2.89522,-3.47858 4.66693,-4.86138c1.77171,-1.3828 3.75946,-2.4631 5.96328,-3.24092c2.24703,-0.77782 4.71013,-1.16673 7.3893,-1.16673c2.24703,0 4.29962,0.30248 6.15775,0.90745c1.85812,0.60498 3.50019,1.46921 4.9262,2.59274c1.46921,1.0803 2.74398,2.37667 3.82428,3.8891c1.0803,1.51244 1.96616,3.1761 2.65755,4.99102c0.69139,1.77171 1.18834,3.67303 1.49083,5.70401c0.34571,1.98775 0.51854,4.01874 0.51854,6.09293zM220.83901,144.07054c0,-0.73461 -0.08643,-1.46921 -0.25927,-2.20382c-0.12964,-0.73461 -0.3673,-1.40439 -0.71301,-2.00937c-0.34571,-0.60498 -0.79944,-1.10191 -1.36119,-1.49083c-0.51854,-0.38891 -1.18834,-0.58336 -2.00937,-0.58336c-1.03709,0 -1.94455,0.28089 -2.72237,0.84264c-0.73461,0.51854 -1.3828,1.18835 -1.94455,2.00937c-0.56175,0.82102 -1.01548,1.70689 -1.36119,2.65755c-0.34571,0.95066 -0.60498,1.83653 -0.77782,2.65756l11.14876,-1.10191zM284.00121,173.30362l-18.73251,2.39828l-2.26864,-8.55603h-8.62084l-1.87974,8.55603l-19.31587,-1.87974l15.03786,-50.36386l21.06597,-1.0371zM261.63888,155.6082l-2.91682,-13.15813l-2.78719,13.15813zM329.07694,140.11662c0,1.94455 -0.17284,3.71626 -0.51855,5.31511c-0.34571,1.59885 -0.88584,3.06807 -1.62046,4.40764c-0.73462,1.33957 -1.68528,2.59274 -2.85201,3.75947c-1.12352,1.12353 -2.5063,2.20383 -4.14837,3.24092l9.00975,16.01013l-17.04723,3.30574l-5.76884,-16.07495l-4.73174,0.12964l-0.64818,15.75087h-16.26941c0.12964,-5.74722 0.23766,-11.47286 0.32409,-17.17687c0.12964,-5.70401 0.28089,-11.42964 0.45373,-17.17686c0.04321,-2.89522 0.08643,-5.76883 0.12964,-8.62084c0.04321,-2.85201 0.15125,-5.72563 0.32409,-8.62084c1.77171,-0.64818 3.50019,-1.18835 5.18547,-1.62046c1.72848,-0.43211 3.45699,-0.7562 5.18547,-0.97227c1.72848,-0.25928 3.47858,-0.43211 5.25029,-0.51855c1.77171,-0.08643 3.58662,-0.12964 5.44474,-0.12964c2.89522,0 5.6824,0.41052 8.36157,1.23155c2.67917,0.77782 5.03422,1.96617 7.0652,3.56501c2.07419,1.55564 3.73786,3.52181 4.99102,5.89847c1.25316,2.37667 1.87973,5.14227 1.87973,8.29675zM312.15934,141.34816c0,-1.0803 -0.15125,-2.05258 -0.45373,-2.91683c-0.30248,-0.90745 -0.73462,-1.66366 -1.29637,-2.26864c-0.56175,-0.64819 -1.27475,-1.14511 -2.139,-1.49082c-0.82103,-0.38891 -1.79331,-0.58337 -2.91683,-0.58337c-0.51855,0 -1.01548,0.04321 -1.49082,0.12964c-0.47534,0.04321 -0.92907,0.12964 -1.36118,0.25928l-0.64819,14.00077h0.90745c1.0803,0 2.18222,-0.12964 3.30574,-0.38891c1.12352,-0.25928 2.139,-0.6698 3.04646,-1.23155c0.90746,-0.60498 1.64207,-1.36119 2.20382,-2.26864c0.56175,-0.90745 0.84264,-1.98776 0.84264,-3.24092z" fill="url(#color-6)" stroke="#ce4f00" stroke-width="1.5" stroke-linecap="square"/></g></g></svg>
