<svg version="1.1" xmlns="http://www.w3.org/2000/svg" xmlns:xlink="http://www.w3.org/1999/xlink" width="257.34578" height="128.05845" viewBox="0,0,257.34578,128.05845"><defs><radialGradient cx="347.99309" cy="187.5538" r="7.47182" gradientUnits="userSpaceOnUse" id="color-1"><stop offset="0" stop-color="#737373"/><stop offset="1" stop-color="#575757"/></radialGradient><radialGradient cx="316.65976" cy="217.59442" r="9.29466" gradientUnits="userSpaceOnUse" id="color-2"><stop offset="0" stop-color="#737373"/><stop offset="1" stop-color="#575757"/></radialGradient><radialGradient cx="125.31834" cy="195.26172" r="9.29466" gradientUnits="userSpaceOnUse" id="color-3"><stop offset="0" stop-color="#737373"/><stop offset="1" stop-color="#575757"/></radialGradient><radialGradient cx="152.79601" cy="211.42107" r="34.75937" gradientUnits="userSpaceOnUse" id="color-4"><stop offset="0" stop-color="#747474"/><stop offset="1" stop-color="#5f5c5c"/></radialGradient><radialGradient cx="272.44002" cy="200.62291" r="27.37543" gradientUnits="userSpaceOnUse" id="color-5"><stop offset="0" stop-color="#747474"/><stop offset="1" stop-color="#5f5c5c"/></radialGradient><radialGradient cx="290.94002" cy="222.12291" r="26.98849" gradientUnits="userSpaceOnUse" id="color-6"><stop offset="0" stop-color="#747474"/><stop offset="1" stop-color="#5f5c5c"/></radialGradient><radialGradient cx="354.94002" cy="192.62291" r="27.37543" gradientUnits="userSpaceOnUse" id="color-7"><stop offset="0" stop-color="#747474"/><stop offset="1" stop-color="#5f5c5c"/></radialGradient><radialGradient cx="210.32086" cy="212.57679" r="21.02244" gradientUnits="userSpaceOnUse" id="color-8"><stop offset="0" stop-color="#737373"/><stop offset="1" stop-color="#575757"/></radialGradient></defs><g transform="translate(-111.58675,-116.37197)"><g data-paper-data="{&quot;isPaintingLayer&quot;:true}" fill-rule="nonzero" stroke-linejoin="miter" stroke-miterlimit="10" stroke-dasharray="" stroke-dashoffset="0" style="mix-blend-mode: normal"><g stroke-linecap="butt"><g stroke-width="1"><path d="M341.61241,183.66609c2.14712,-3.52395 6.74444,-4.6401 10.26839,-2.49297c3.52395,2.14712 4.64009,6.74444 2.49296,10.2684c-2.14712,3.52395 -6.74442,4.64009 -10.26838,2.49295c-3.52395,-2.14712 -4.64011,-6.74443 -2.49298,-10.26838zM349.31932,185.40189c-1.21515,-0.74038 -2.80044,-0.35551 -3.54082,0.85964c-0.74038,1.21515 -0.35551,2.80045 0.85965,3.54083c1.21515,0.74038 2.80044,0.35551 3.54082,-0.85965c0.74038,-1.21515 0.35551,-2.80044 -0.85965,-3.54083z" fill="url(#color-1)" stroke="#434343"/><path d="M346.51664,194.52267c0,0 -0.85966,0.59671 -1.19205,1.14224c-0.35648,0.58508 -1.10823,1.81887 -1.10823,1.81887c0,0 -1.3758,-0.16245 -1.8791,-0.46912c-0.52906,-0.32235 -1.22189,-1.4203 -1.22189,-1.4203c0,0 0.7143,-1.17233 1.06417,-1.74656c0.34042,-0.55872 0.4867,-1.67115 0.4867,-1.67115" fill="#575757" stroke="none"/><path d="M346.68315,194.82223c0,0 -1.20759,0.51568 -1.50871,1.00989c-0.32295,0.53004 -0.91326,1.63402 -1.004,1.6478c-0.28231,0.04288 -1.32267,-0.10596 -1.81943,-0.40863c-0.5342,-0.32548 -1.31006,-1.33664 -1.28157,-1.4808c0.05461,-0.27642 0.64711,-1.06207 0.96408,-1.5823c0.30841,-0.50618 0.23722,-1.82438 0.23722,-1.82438" fill="#575757" stroke="#434343"/><path d="M349.3152,180.63848c0,0 1.108,-0.65602 1.44039,-1.20154c0.35648,-0.58508 1.10823,-1.81886 1.10823,-1.81886c0,0 1.37579,0.16245 1.8791,0.46912c0.52906,0.32235 1.22189,1.4203 1.22189,1.4203c0,0 -0.7143,1.17234 -1.06417,1.74656c-0.34042,0.55872 -0.4867,1.67115 -0.4867,1.67115" data-paper-data="{&quot;index&quot;:null}" fill="#575757" stroke="none"/><path d="M349.16493,180.26943c0,0 1.43971,-0.50548 1.74083,-0.99969c0.32295,-0.53004 0.91326,-1.63402 1.004,-1.6478c0.28231,-0.04288 1.32267,0.10595 1.81942,0.40862c0.53419,0.32548 1.31005,1.33664 1.28158,1.48081c-0.05461,0.27642 -0.64712,1.06207 -0.96408,1.58229c-0.30841,0.50619 -0.27567,1.80075 -0.27567,1.80075" data-paper-data="{&quot;index&quot;:null}" fill="#575757" stroke="#434343"/><path d="M354.9323,189.21918c0,0 0.57904,0.87167 1.11769,1.21511c0.57769,0.36834 1.79587,1.1451 1.79587,1.1451c0,0 -0.19048,1.37219 -0.50735,1.86915c-0.33308,0.52238 -1.44494,1.19266 -1.44494,1.19266c0,0 -1.15752,-0.73807 -1.72448,-1.09959c-0.55167,-0.35176 -1.66088,-0.52069 -1.66088,-0.52069" data-paper-data="{&quot;index&quot;:null}" fill="#575757" stroke="none"/><path d="M355.22714,189.05866c0,0 0.49897,1.21804 0.98696,1.52918c0.52335,0.3337 1.61503,0.94639 1.62697,1.0374c0.03711,0.28314 -0.13291,1.32025 -0.44566,1.81072c-0.33632,0.52745 -1.36311,1.28251 -1.50666,1.2511c-0.27525,-0.06023 -1.04865,-0.66865 -1.56229,-0.99616c-0.49978,-0.31868 -1.78477,-0.27588 -1.78477,-0.27588" data-paper-data="{&quot;index&quot;:null}" fill="#575757" stroke="#434343"/><path d="M344.09088,181.57895c0,0 0.17739,-1.03133 0.02152,-1.65083c-0.16716,-0.66442 -0.51965,-2.06552 -0.51965,-2.06552c0,0 1.08053,-0.86696 1.65211,-1.01077c0.60082,-0.15115 1.86942,0.12479 1.86942,0.12479c0,0 0.33494,1.33132 0.499,1.98341c0.15964,0.6345 0.85017,1.51883 0.85017,1.51883" fill="#575757" stroke="none"/><path d="M351.89531,193.52864c0,0 -0.17739,1.03133 -0.02153,1.65084c0.16716,0.66442 0.51965,2.06552 0.51965,2.06552c0,0 -1.08054,0.86696 -1.65212,1.01077c-0.60082,0.15115 -1.86942,-0.1248 -1.86942,-0.1248c0,0 -0.33493,-1.33131 -0.49899,-1.98341c-0.15964,-0.6345 -0.85017,-1.51883 -0.85017,-1.51883" data-paper-data="{&quot;index&quot;:null}" fill="#575757" stroke="none"/><path d="M341.75646,191.02231c0,0 -1.01614,-0.25011 -1.64514,-0.13858c-0.67461,0.1196 -2.09719,0.3718 -2.09719,0.3718c0,0 -0.78812,-1.13933 -0.89101,-1.71967c-0.10815,-0.61003 0.25711,-1.85585 0.25711,-1.85585c0,0 1.35173,-0.23964 2.01382,-0.35703c0.64422,-0.11421 1.57532,-0.74026 1.57532,-0.74026" fill="#575757" stroke="none"/><path d="M341.57483,191.29622c0,0 -1.24548,-0.49303 -1.68825,-0.41453c-0.61116,0.10834 -1.82959,0.39577 -1.89994,0.33683c-0.21888,-0.18339 -0.79537,-1.06213 -0.89691,-1.63488c-0.1092,-0.61594 0.13606,-1.86665 0.263,-1.94063c0.24344,-0.14186 1.22459,-0.2171 1.82441,-0.32344c0.58363,-0.10347 1.55408,-0.97446 1.55408,-0.97446" fill="#575757" stroke="#434343"/><path d="M354.22971,184.08528c0,0 1.01614,0.25012 1.64514,0.13859c0.67461,-0.1196 2.09719,-0.37181 2.09719,-0.37181c0,0 0.78813,1.13934 0.89102,1.71967c0.10815,0.61003 -0.25711,1.85584 -0.25711,1.85584c0,0 -1.35173,0.23965 -2.01382,0.35704c-0.64422,0.11421 -1.57533,0.74027 -1.57533,0.74027" data-paper-data="{&quot;index&quot;:null}" fill="#575757" stroke="none"/><path d="M354.29598,183.74049c0,0 1.23378,0.58644 1.80362,0.48542c0.61116,-0.10834 1.82959,-0.39579 1.89994,-0.33684c0.21888,0.18339 0.79536,1.06213 0.89692,1.63489c0.1092,0.61594 -0.13605,1.86665 -0.26301,1.94062c-0.24344,0.14186 -1.22459,0.2171 -1.82442,0.32344c-0.58363,0.10347 -1.50821,1.02913 -1.50821,1.02913" data-paper-data="{&quot;index&quot;:null}" fill="#575757" stroke="#434343"/><path d="M352.26647,193.59227c0,0 -0.52739,1.21924 -0.38619,1.78048c0.15144,0.60194 0.52459,1.7969 0.47077,1.87125c-0.1674,0.23134 -1.00303,0.86871 -1.56714,1.01063c-0.60663,0.15262 -1.87159,-0.00328 -1.9544,-0.12467c-0.15877,-0.23277 -0.30343,-1.2061 -0.45206,-1.79686c-0.14462,-0.57482 -1.04373,-1.37577 -1.04373,-1.37577" data-paper-data="{&quot;index&quot;:null}" fill="#575757" stroke="#434343"/><path d="M341.63242,186.21759c0,0 -1.18692,-1.21871 -1.72556,-1.56216c-0.57769,-0.36834 -1.79587,-1.1451 -1.79587,-1.1451c0,0 0.19049,-1.37219 0.50735,-1.86915c0.33308,-0.52238 1.44494,-1.19266 1.44494,-1.19266c0,0 1.15752,0.73807 1.72448,1.09959c0.1656,0.10559 0.38144,0.1947 0.60243,0.26772c0.51521,0.17023 1.05844,0.25297 1.05844,0.25297" fill="#575757" stroke="none"/><path d="M340.76924,185.81682c0,0 -0.50917,-0.98591 -0.99715,-1.29705c-0.52335,-0.3337 -1.61504,-0.9464 -1.62697,-1.03742c-0.03711,-0.28314 0.13291,-1.32025 0.44566,-1.81071c0.33632,-0.52745 1.36311,-1.28251 1.50665,-1.2511c0.27525,0.06023 1.04865,0.66866 1.56229,0.99617c0.49978,0.31868 1.71387,0.39125 1.71387,0.39125" fill="#575757" stroke="#434343"/><path d="M350.17896,188.94271c-0.74038,1.21515 -2.32567,1.60002 -3.54083,0.85964c-1.21515,-0.74038 -1.60002,-2.32567 -0.85964,-3.54083c0.74038,-1.21515 2.32567,-1.60003 3.54083,-0.85965c1.21515,0.74038 1.60003,2.32568 0.85964,3.54083z" fill="#747474" stroke="#434343"/><path d="M343.11231,181.86462c0,0 0.28605,-0.16863 0.44312,-0.27958c0.15212,-0.10746 0.4849,-0.37594 0.4849,-0.37594c0,0 0.19935,-0.94404 0.05814,-1.50528c-0.15144,-0.60194 -0.52459,-1.7969 -0.47077,-1.87125c0.1674,-0.23134 1.00302,-0.86871 1.56714,-1.01062c0.60663,-0.15262 1.87159,0.00328 1.95439,0.12467c0.15877,0.23277 0.30343,1.20609 0.45207,1.79686c0.14462,0.57482 1.10441,1.49253 1.10441,1.49253" fill="#575757" stroke="#434343"/></g><g stroke-width="1"><path d="M308.72243,212.75826c2.67094,-4.38365 8.38982,-5.77211 12.77349,-3.10116c4.38365,2.67094 5.7721,8.38983 3.10115,12.77349c-2.67094,4.38365 -8.38981,5.77209 -12.77348,3.10114c-4.38365,-2.67094 -5.77211,-8.38982 -3.10117,-12.77347zM318.30954,214.91753c-1.5116,-0.92101 -3.48364,-0.44224 -4.40465,1.06936c-0.92101,1.5116 -0.44223,3.48365 1.06937,4.40466c1.5116,0.92101 3.48364,0.44223 4.40465,-1.06937c0.92101,-1.5116 0.44223,-3.48364 -1.06937,-4.40465z" fill="url(#color-2)" stroke="#434343"/><path d="M314.82311,226.26343c0,0 -1.06939,0.7423 -1.48286,1.42091c-0.44345,0.72782 -1.37859,2.2626 -1.37859,2.2626c0,0 -1.71144,-0.20208 -2.33753,-0.58356c-0.65813,-0.40099 -1.51999,-1.7668 -1.51999,-1.7668c0,0 0.88856,-1.45834 1.32379,-2.17265c0.42348,-0.69503 0.60544,-2.07885 0.60544,-2.07885" fill="#575757" stroke="none"/><path d="M315.03024,226.63608c0,0 -1.50219,0.64149 -1.87678,1.25627c-0.40174,0.65935 -1.13605,2.03266 -1.24893,2.0498c-0.35119,0.05334 -1.64536,-0.1318 -2.2633,-0.50831c-0.66453,-0.40488 -1.62967,-1.66274 -1.59423,-1.84206c0.06794,-0.34385 0.80498,-1.32117 1.19928,-1.96831c0.38365,-0.62967 0.29509,-2.26946 0.29509,-2.26946" fill="#575757" stroke="#434343"/><path d="M318.30442,208.99203c0,0 1.37831,-0.81606 1.79179,-1.49467c0.44345,-0.72782 1.37859,-2.2626 1.37859,-2.2626c0,0 1.71144,0.20208 2.33753,0.58356c0.65813,0.40099 1.51999,1.76681 1.51999,1.76681c0,0 -0.88856,1.45834 -1.32379,2.17265c-0.42348,0.69503 -0.60544,2.07885 -0.60544,2.07885" data-paper-data="{&quot;index&quot;:null}" fill="#575757" stroke="none"/><path d="M318.11747,208.53294c0,0 1.79094,-0.6288 2.16553,-1.24358c0.40174,-0.65935 1.13606,-2.03266 1.24893,-2.0498c0.35119,-0.05334 1.64535,0.1318 2.26329,0.50831c0.66452,0.40489 1.62965,1.66273 1.59423,1.84207c-0.06794,0.34385 -0.80499,1.32117 -1.19929,1.96831c-0.38365,0.62968 -0.34293,2.24007 -0.34293,2.24007" data-paper-data="{&quot;index&quot;:null}" fill="#575757" stroke="#434343"/><path d="M325.29187,219.66609c0,0 0.72031,1.08432 1.39036,1.51155c0.71863,0.45821 2.23399,1.42446 2.23399,1.42446c0,0 -0.23695,1.70695 -0.63112,2.32515c-0.41434,0.64982 -1.79746,1.48362 -1.79746,1.48362c0,0 -1.4399,-0.91813 -2.14518,-1.36784c-0.68626,-0.43758 -2.06608,-0.64772 -2.06608,-0.64772" data-paper-data="{&quot;index&quot;:null}" fill="#575757" stroke="none"/><path d="M325.65864,219.46641c0,0 0.6207,1.51519 1.22773,1.90224c0.65103,0.41512 2.00904,1.17728 2.02389,1.29049c0.04616,0.35221 -0.16534,1.64234 -0.55438,2.25247c-0.41837,0.65613 -1.69566,1.59539 -1.87422,1.55631c-0.3424,-0.07493 -1.30448,-0.83178 -1.94343,-1.23919c-0.6217,-0.39642 -2.22018,-0.34319 -2.22018,-0.34319" data-paper-data="{&quot;index&quot;:null}" fill="#575757" stroke="#434343"/><path d="M311.80555,210.16194c0,0 0.22067,-1.28293 0.02678,-2.05357c-0.20794,-0.82651 -0.64643,-2.56943 -0.64643,-2.56943c0,0 1.34414,-1.07846 2.05517,-1.25735c0.7474,-0.18803 2.32548,0.15523 2.32548,0.15523c0,0 0.41666,1.65611 0.62074,2.46729c0.19858,0.7893 1.05758,1.88937 1.05758,1.88937" fill="#575757" stroke="none"/><path d="M321.51397,225.02689c0,0 -0.22066,1.28293 -0.02678,2.05358c0.20794,0.82651 0.64642,2.56943 0.64642,2.56943c0,0 -1.34416,1.07846 -2.05518,1.25735c-0.7474,0.18803 -2.32549,-0.15525 -2.32549,-0.15525c0,0 -0.41663,-1.65611 -0.62073,-2.46728c-0.19858,-0.7893 -1.05758,-1.88937 -1.05758,-1.88937" data-paper-data="{&quot;index&quot;:null}" fill="#575757" stroke="none"/><path d="M308.90163,221.90911c0,0 -1.26404,-0.31112 -2.04649,-0.17239c-0.83918,0.14877 -2.60882,0.46251 -2.60882,0.46251c0,0 -0.9804,-1.41727 -1.10839,-2.1392c-0.13454,-0.75885 0.31983,-2.30861 0.31983,-2.30861c0,0 1.6815,-0.29811 2.50511,-0.44413c0.80138,-0.14207 1.95964,-0.92086 1.95964,-0.92086" fill="#575757" stroke="none"/><path d="M308.67568,222.24985c0,0 -1.54932,-0.6133 -2.10012,-0.51566c-0.76025,0.13478 -2.27594,0.49232 -2.36345,0.419c-0.27228,-0.22814 -0.9894,-1.32124 -1.11572,-2.03372c-0.13584,-0.7662 0.16925,-2.32204 0.32716,-2.41407c0.30284,-0.17647 1.52334,-0.27007 2.2695,-0.40234c0.72601,-0.12872 1.93322,-1.21219 1.93322,-1.21219" fill="#575757" stroke="#434343"/><path d="M324.41788,213.27972c0,0 1.26404,0.31114 2.04649,0.1724c0.83918,-0.14877 2.60882,-0.46251 2.60882,-0.46251c0,0 0.9804,1.41729 1.10839,2.13921c0.13454,0.75885 -0.31983,2.30859 -0.31983,2.30859c0,0 -1.6815,0.29811 -2.50511,0.44414c-0.80138,0.14207 -1.95965,0.92087 -1.95965,0.92087" data-paper-data="{&quot;index&quot;:null}" fill="#575757" stroke="none"/><path d="M324.50031,212.85081c0,0 1.53478,0.72951 2.24364,0.60384c0.76025,-0.13478 2.27594,-0.49234 2.36346,-0.41901c0.27228,0.22814 0.98939,1.32125 1.11573,2.03374c0.13584,0.7662 -0.16925,2.32204 -0.32718,2.41406c-0.30283,0.17647 -1.52334,0.27007 -2.26951,0.40235c-0.72601,0.12872 -1.87616,1.2802 -1.87616,1.2802" data-paper-data="{&quot;index&quot;:null}" fill="#575757" stroke="#434343"/><path d="M321.97568,225.10604c0,0 -0.65605,1.51669 -0.4804,2.21485c0.18838,0.74878 0.65257,2.23527 0.58562,2.32777c-0.20824,0.28778 -1.24773,1.08064 -1.94946,1.25718c-0.75463,0.18985 -2.32819,-0.00407 -2.4312,-0.15509c-0.19751,-0.28955 -0.37745,-1.50034 -0.56234,-2.23523c-0.1799,-0.71505 -1.29836,-1.71141 -1.29836,-1.71141" data-paper-data="{&quot;index&quot;:null}" fill="#575757" stroke="#434343"/><path d="M308.74732,215.93222c0,0 -1.47648,-1.51603 -2.14652,-1.94326c-0.71863,-0.4582 -2.23399,-1.42446 -2.23399,-1.42446c0,0 0.23697,-1.70696 0.63113,-2.32516c0.41434,-0.64982 1.79745,-1.48362 1.79745,-1.48362c0,0 1.43991,0.91812 2.14519,1.36784c0.206,0.13135 0.4745,0.24221 0.74941,0.33304c0.6409,0.21176 1.31666,0.31468 1.31666,0.31468" fill="#575757" stroke="none"/><path d="M307.67356,215.43369c0,0 -0.63339,-1.22643 -1.24042,-1.61348c-0.65103,-0.41512 -2.00905,-1.17729 -2.02389,-1.2905c-0.04616,-0.35221 0.16533,-1.64234 0.55438,-2.25246c0.41837,-0.65613 1.69566,-1.5954 1.87422,-1.55632c0.3424,0.07493 1.30448,0.83178 1.94343,1.23919c0.6217,0.39642 2.132,0.4867 2.132,0.4867" fill="#575757" stroke="#434343"/><path d="M319.37889,219.32217c-0.92101,1.5116 -2.89305,1.99037 -4.40465,1.06936c-1.5116,-0.92101 -1.99037,-2.89305 -1.06936,-4.40466c0.92101,-1.5116 2.89305,-1.99038 4.40465,-1.06937c1.5116,0.92101 1.99037,2.89306 1.06936,4.40466z" fill="#747474" stroke="#434343"/><path d="M310.58825,210.5173c0,0 0.35584,-0.20978 0.55122,-0.34779c0.18923,-0.13367 0.6032,-0.46765 0.6032,-0.46765c0,0 0.24798,-1.17435 0.07233,-1.87251c-0.18838,-0.74878 -0.65257,-2.23528 -0.58562,-2.32777c0.20824,-0.28778 1.24772,-1.08064 1.94947,-1.25717c0.75463,-0.18985 2.32819,0.00408 2.43119,0.15509c0.19751,0.28955 0.37745,1.50033 0.56235,2.23522c0.1799,0.71505 1.37385,1.85665 1.37385,1.85665" fill="#575757" stroke="#434343"/></g><g stroke-width="1"><path d="M119.9818,187.6518c4.20284,-2.94728 9.99917,-1.92947 12.94646,2.27338c2.94728,4.20284 1.92947,9.99917 -2.27339,12.94646c-4.20284,2.94728 -9.99916,1.92947 -12.94645,-2.27339c-2.94728,-4.20284 -1.92947,-9.99917 2.27337,-12.94646zM127.90202,193.46947c-1.0163,-1.44925 -3.01505,-1.80023 -4.4643,-0.78392c-1.44925,1.0163 -1.80022,3.01505 -0.78392,4.46431c1.0163,1.44925 3.01505,1.80023 4.4643,0.78392c1.44925,-1.0163 1.80023,-3.01505 0.78392,-4.4643z" fill="url(#color-3)" stroke="#434343"/><path d="M120.16394,202.46986c0,0 -1.27715,0.25196 -1.92777,0.70821c-0.69779,0.48934 -2.16927,1.52122 -2.16927,1.52122c0,0 -1.4873,-0.8705 -1.90825,-1.47077c-0.44248,-0.63098 -0.6853,-2.22763 -0.6853,-2.22763c0,0 1.39819,-0.9805 2.08304,-1.46075c0.66636,-0.46729 1.38723,-1.66245 1.38723,-1.66245" fill="#575757" stroke="none"/><path d="M120.20452,202.89427c0,0 -1.63337,-0.01373 -2.2228,0.3996c-0.63215,0.4433 -1.85495,1.40765 -1.96526,1.37816c-0.34316,-0.09175 -1.4549,-0.77964 -1.87036,-1.37209c-0.44678,-0.63711 -0.82747,-2.17619 -0.72319,-2.32632c0.19994,-0.28788 1.26668,-0.88827 1.88712,-1.32337c0.6037,-0.42335 1.17919,-1.96139 1.17919,-1.96139" fill="#575757" stroke="#434343"/><path d="M130.27014,188.03775c0,0 1.58976,-0.19584 2.24038,-0.65209c0.69779,-0.48934 2.16927,-1.52122 2.16927,-1.52122c0,0 1.4873,0.8705 1.90825,1.47077c0.44248,0.63098 0.68529,2.22763 0.68529,2.22763c0,0 -1.39819,0.9805 -2.08304,1.46075c-0.66636,0.46729 -1.38723,1.66245 -1.38723,1.66245" data-paper-data="{&quot;index&quot;:null}" fill="#575757" stroke="none"/><path d="M130.28268,187.54222c0,0 1.89288,0.14099 2.4823,-0.27235c0.63215,-0.4433 1.85496,-1.40764 1.96525,-1.37816c0.34316,0.09175 1.4549,0.77964 1.87036,1.37209c0.44678,0.63711 0.82746,2.17618 0.72319,2.32633c-0.19994,0.28788 -1.26668,0.88826 -1.88712,1.32336c-0.6037,0.42336 -1.21125,1.91531 -1.21125,1.91531" data-paper-data="{&quot;index&quot;:null}" fill="#575757" stroke="#434343"/><path d="M132.39855,200.6167c0,0 0.22583,1.28203 0.66873,1.94183c0.47501,0.70764 1.47664,2.19985 1.47664,2.19985c0,0 -0.90065,1.46922 -1.50939,1.87786c-0.63988,0.42953 -2.24115,0.6397 -2.24115,0.6397c0,0 -0.95176,-1.4179 -1.41794,-2.11241c-0.45361,-0.67577 -1.63382,-1.42087 -1.63382,-1.42087" data-paper-data="{&quot;index&quot;:null}" fill="#575757" stroke="none"/><path d="M132.81459,200.58059c0,0 -0.03798,1.63696 0.36326,2.2347c0.43032,0.64108 1.3695,1.88327 1.33776,1.99296c-0.09874,0.34122 -0.80917,1.43871 -1.40997,1.84199c-0.6461,0.43369 -2.19263,0.78288 -2.3406,0.67557c-0.28374,-0.20577 -0.86225,-1.28455 -1.28458,-1.91373c-0.41094,-0.6122 -1.89698,-1.20353 -1.89698,-1.20353" data-paper-data="{&quot;index&quot;:null}" fill="#575757" stroke="#434343"/><path d="M123.8466,186.50735c0,0 0.71595,-1.08721 0.84687,-1.87101c0.14043,-0.84062 0.43657,-2.61328 0.43657,-2.61328c0,0 1.66353,-0.44997 2.3867,-0.32917c0.76015,0.12699 2.06873,1.07346 2.06873,1.07346c0,0 -0.28138,1.68438 -0.41921,2.5094c-0.1341,0.80277 0.2125,2.15478 0.2125,2.15478" fill="#575757" stroke="none"/><path d="M126.79009,204.01609c0,0 -0.71594,1.08721 -0.84688,1.87101c-0.14043,0.84062 -0.43658,2.61328 -0.43658,2.61328c0,0 -1.66354,0.44996 -2.3867,0.32916c-0.76015,-0.12699 -2.06873,-1.07348 -2.06873,-1.07348c0,0 0.2814,-1.68436 0.41922,-2.50939c0.1341,-0.80277 -0.2125,-2.15477 -0.2125,-2.15477" data-paper-data="{&quot;index&quot;:null}" fill="#575757" stroke="none"/><path d="M116.48161,196.10869c0,0 -1.03368,-0.79127 -1.80621,-0.97746c-0.82854,-0.19972 -2.57573,-0.62087 -2.57573,-0.62087c0,0 -0.33082,-1.69127 -0.15901,-2.40404c0.1806,-0.74923 1.21753,-1.98735 1.21753,-1.98735c0,0 1.66017,0.40018 2.47333,0.59618c0.79121,0.19072 2.16441,-0.05909 2.16441,-0.05909" fill="#575757" stroke="none"/><path d="M116.13812,196.33044c0,0 -1.17409,-1.1824 -1.7179,-1.31348c-0.75061,-0.18094 -2.28264,-0.46026 -2.33347,-0.56248c-0.15814,-0.31808 -0.37753,-1.60688 -0.20797,-2.31033c0.18234,-0.75648 1.08493,-2.05996 1.26648,-2.08105c0.34816,-0.04043 1.50402,0.36254 2.24071,0.54013c0.7168,0.17278 2.25686,-0.33661 2.25686,-0.33661" fill="#575757" stroke="#434343"/><path d="M134.15507,194.41474c0,0 1.03368,0.79128 1.80621,0.97748c0.82854,0.19972 2.57573,0.62087 2.57573,0.62087c0,0 0.33082,1.69128 0.15901,2.40404c-0.1806,0.74923 -1.21753,1.98734 -1.21753,1.98734c0,0 -1.66017,-0.40017 -2.47334,-0.59618c-0.79121,-0.19072 -2.16442,0.05909 -2.16442,0.05909" data-paper-data="{&quot;index&quot;:null}" fill="#575757" stroke="none"/><path d="M134.40236,194.05473c0,0 1.11422,1.28306 1.81409,1.45176c0.75061,0.18094 2.28265,0.46023 2.33348,0.56248c0.15814,0.31808 0.37752,1.60689 0.20797,2.31035c-0.18234,0.75648 -1.08493,2.05996 -1.2665,2.08104c-0.34815,0.04043 -1.50402,-0.36254 -2.24072,-0.54013c-0.7168,-0.17278 -2.23181,0.42178 -2.23181,0.42178" data-paper-data="{&quot;index&quot;:null}" fill="#575757" stroke="#434343"/><path d="M127.18147,204.27351c0,0 -1.2085,1.12707 -1.32712,1.83714c-0.12722,0.76156 -0.29713,2.30954 -0.39551,2.36749c-0.30605,0.18031 -1.57606,0.49058 -2.28976,0.37134c-0.76751,-0.12822 -2.13174,-0.93604 -2.16565,-1.11567c-0.06503,-0.34442 0.25493,-1.52594 0.37979,-2.27337c0.12149,-0.72726 -0.5044,-2.08811 -0.5044,-2.08811" data-paper-data="{&quot;index&quot;:null}" fill="#575757" stroke="#434343"/><path d="M118.73362,190.57015c0,0 -0.74584,-1.98042 -1.18874,-2.64021c-0.47501,-0.70763 -1.47664,-2.19985 -1.47664,-2.19985c0,0 0.90067,-1.46923 1.50941,-1.87786c0.63988,-0.42953 2.24115,-0.6397 2.24115,-0.6397c0,0 0.95176,1.4179 1.41794,2.11241c0.13616,0.20285 0.3378,0.41195 0.55333,0.60527c0.50247,0.45068 1.08047,0.81559 1.08047,0.81559" fill="#575757" stroke="none"/><path d="M117.94934,189.68334c0,0 -0.08927,-1.37744 -0.49052,-1.97519c-0.43032,-0.64108 -1.3695,-1.88328 -1.33776,-1.99296c0.09874,-0.34122 0.80916,-1.4387 1.40997,-1.84198c0.6461,-0.43369 2.19263,-0.78288 2.34061,-0.67557c0.28374,0.20577 0.86224,1.28455 1.28458,1.91373c0.41094,0.6122 1.7587,1.29972 1.7587,1.29972" fill="#575757" stroke="#434343"/><path d="M127.11808,197.93376c-1.44925,1.0163 -3.44799,0.66532 -4.4643,-0.78393c-1.0163,-1.44925 -0.66532,-3.448 0.78392,-4.4643c1.44925,-1.0163 3.44799,-0.66533 4.4643,0.78392c1.0163,1.44925 0.66532,3.448 -0.78393,4.46431z" fill="#747474" stroke="#434343"/><path d="M122.58886,186.34551c0,0 0.41007,-0.04973 0.64437,-0.09796c0.22693,-0.0467 0.73999,-0.18697 0.73999,-0.18697c0,0 0.69749,-0.97678 0.81611,-1.68686c0.12722,-0.76156 0.29714,-2.30955 0.39552,-2.36749c0.30605,-0.18031 1.57606,-0.49057 2.28977,-0.37133c0.76751,0.12822 2.13173,0.93605 2.16564,1.11566c0.06503,0.34442 -0.25492,1.52593 -0.37978,2.27337c-0.12149,0.72726 0.51541,2.25144 0.51541,2.25144" fill="#575757" stroke="#434343"/></g><path d="M187.55537,185.98028l-8.77045,52.10682l-21.34574,0.45142l-4.5787,-27.02074l-4.5787,25.08608l-21.34573,0.70937l-8.89943,-51.33295l18.63721,-1.6767l3.74034,31.2125l5.0946,-31.2125h14.63892l5.86847,31.59943l2.96648,-31.59943z" fill="url(#color-4)" stroke="#434343" stroke-width="1.5"/><path d="M281.42742,201.90899c0,1.93466 -0.17195,3.69736 -0.5159,5.28807c-0.34395,1.59071 -0.88135,3.05246 -1.61222,4.38522c-0.73088,1.33276 -1.6767,2.57954 -2.8375,3.74034c-1.11781,1.11781 -2.49356,2.19262 -4.12728,3.22444l8.96393,15.92869l-16.96051,3.28892l-5.73949,-15.99318l-4.70768,0.12898l-0.64488,15.67074h-16.18665c0.12898,-5.71798 0.23646,-11.41448 0.32245,-17.08948c0.12898,-5.675 0.27946,-11.37151 0.45142,-17.08949c0.04298,-2.88048 0.08599,-5.73949 0.12898,-8.57699c0.04298,-2.8375 0.15048,-5.69651 0.32244,-8.57699c1.7627,-0.64488 3.48239,-1.18229 5.15909,-1.61221c1.71969,-0.42992 3.4394,-0.75236 5.15909,-0.96733c1.71969,-0.25796 3.46088,-0.42992 5.22358,-0.51591c1.7627,-0.08599 3.56838,-0.12897 5.41705,-0.12897c2.88048,0 5.65349,0.40843 8.31903,1.22528c2.66554,0.77387 5.00862,1.95616 7.02927,3.54688c2.06363,1.54773 3.71884,3.5039 4.96563,5.86847c1.24679,2.36458 1.87016,5.11611 1.87016,8.25455zM264.59589,203.13428c0,-1.0748 -0.15048,-2.04214 -0.45142,-2.90199c-0.30094,-0.90284 -0.73088,-1.6552 -1.28978,-2.2571c-0.5589,-0.64488 -1.26827,-1.13929 -2.12813,-1.48324c-0.81685,-0.38693 -1.78418,-0.5804 -2.90199,-0.5804c-0.51591,0 -1.01031,0.04299 -1.48324,0.12898c-0.47292,0.04298 -0.92435,0.12897 -1.35426,0.25795l-0.64488,13.92955h0.90284c1.0748,0 2.17111,-0.12897 3.28892,-0.38693c1.11781,-0.25796 2.12812,-0.66639 3.03096,-1.22529c0.90284,-0.6019 1.63372,-1.35426 2.19262,-2.2571c0.5589,-0.90284 0.83835,-1.97764 0.83835,-3.22443z" fill="url(#color-5)" stroke="#434343" stroke-width="1.5"/><path d="M330.21389,189.59166l-16.57358,19.73352l15.21931,25.92443l-17.41193,3.03097l-11.41449,-15.47727l-0.64488,14.7679l-15.60625,0.5804l1.16079,-53.848l17.54091,0.96732l-1.35426,15.47727l10.89858,-15.67074z" fill="url(#color-6)" stroke="#434343" stroke-width="1.5"/><path d="M368.18253,218.8695c0,3.4394 -0.6019,6.40589 -1.80568,8.89944c-1.1608,2.49355 -2.77301,4.5572 -4.83665,6.19091c-2.06363,1.63371 -4.4927,2.83749 -7.28722,3.61136c-2.75151,0.73087 -5.71798,1.09631 -8.89943,1.09631c-1.24679,0 -2.60105,-0.17196 -4.06278,-0.51591c-1.46173,-0.30094 -2.94497,-0.68787 -4.44972,-1.16079c-1.50474,-0.51591 -2.96648,-1.05332 -4.38523,-1.61221c-1.37577,-0.5589 -2.60106,-1.09631 -3.67586,-1.61222l1.67671,-14.70341c2.14963,1.28977 4.51421,2.2571 7.09375,2.90199c2.57954,0.64488 5.13759,0.96733 7.67415,0.96733c0.47292,0 1.03182,0 1.6767,0c0.68788,-0.04298 1.33276,-0.15048 1.93466,-0.32244c0.64488,-0.21497 1.1608,-0.51591 1.54773,-0.90284c0.42992,-0.38693 0.64488,-0.92434 0.64488,-1.61221c0,-0.47293 -0.15048,-0.88134 -0.45142,-1.22529c-0.30094,-0.34395 -0.68787,-0.62338 -1.1608,-0.83835c-0.47292,-0.21497 -1.01031,-0.36543 -1.61221,-0.45143c-0.6019,-0.12897 -1.1823,-0.21497 -1.74119,-0.25795c-0.5589,-0.04298 -1.09631,-0.06449 -1.61222,-0.06449c-0.51591,0 -0.92434,0 -1.22528,0c-2.14963,0 -4.10577,-0.34394 -5.86847,-1.03181c-1.7627,-0.68787 -3.28892,-1.63371 -4.57869,-2.8375c-1.24679,-1.24679 -2.2356,-2.75151 -2.96647,-4.51421c-0.68788,-1.80569 -1.03183,-3.78333 -1.03183,-5.93295c0,-2.92349 0.6019,-5.56753 1.80568,-7.93211c1.20378,-2.36458 2.79451,-4.36373 4.77215,-5.99744c1.97764,-1.63371 4.25626,-2.88048 6.8358,-3.74034c2.62254,-0.90284 5.30957,-1.35426 8.06108,-1.35426c1.20378,0 2.45057,0.04299 3.74034,0.12898c1.33276,0.08599 2.64403,0.25795 3.93381,0.51591c1.28978,0.21497 2.53656,0.49441 3.74034,0.83836c1.24679,0.34395 2.42906,0.77386 3.54688,1.28977l-1.41875,15.28381c-1.71969,-0.5589 -3.52537,-1.03181 -5.41705,-1.41875c-1.84867,-0.38693 -3.65434,-0.5804 -5.41704,-0.5804c-0.34395,0 -0.77387,0 -1.28978,0c-0.51591,0 -1.05332,0.04299 -1.61221,0.12898c-0.5589,0.04298 -1.13929,0.12897 -1.74119,0.25795c-0.5589,0.12897 -1.0748,0.30094 -1.54772,0.51591c-0.42992,0.21497 -0.79537,0.49441 -1.09631,0.83836c-0.25795,0.34395 -0.36543,0.75236 -0.32244,1.22529c0,0.5589 0.19346,0.98883 0.5804,1.28977c0.42992,0.30094 0.94583,0.53741 1.54773,0.70937c0.6019,0.12897 1.26827,0.19347 1.99914,0.19347c0.73088,0 1.46173,-0.0215 2.19261,-0.06449c0.73088,-0.04298 1.39725,-0.08599 1.99915,-0.12898c0.64488,-0.04298 1.1823,-0.04298 1.61222,0c1.97764,0.12897 3.76184,0.5589 5.35255,1.28977c1.63371,0.68787 3.00946,1.63371 4.12727,2.8375c1.11781,1.20379 1.95616,2.64404 2.51505,4.32075c0.6019,1.6767 0.90285,3.50388 0.90285,5.48153z" fill="url(#color-7)" stroke="#434343" stroke-width="1.5"/><g stroke-width="1.5"><path d="M196.16238,197.03733c8.5822,-7.81949 21.87842,-7.20124 29.69793,1.38099c7.81949,8.5822 7.20123,21.87842 -1.381,29.69793c-8.5822,7.81949 -21.87839,7.20122 -29.6979,-1.38102c-7.81949,-8.5822 -7.20124,-21.87842 1.38096,-29.69791zM215.60234,207.81371c-2.69637,-2.95936 -7.2813,-3.17257 -10.24067,-0.4762c-2.95936,2.69637 -3.17256,7.28131 -0.47619,10.24068c2.69637,2.95936 7.2813,3.17257 10.24066,0.4762c2.95936,-2.69637 3.17257,-7.28131 0.4762,-10.24068z" fill="url(#color-8)" stroke="#434343"/><path d="M200.82793,230.22868c0,0 -2.79285,0.93215 -4.12142,2.14265c-1.42489,1.29827 -4.42965,4.03598 -4.42965,4.03598c0,0 -3.58678,-1.52566 -4.7036,-2.75142c-1.17396,-1.28847 -2.17739,-4.80072 -2.17739,-4.80072c0,0 2.85511,-2.60137 4.25357,-3.87555c1.36071,-1.23978 2.6346,-4.12816 2.6346,-4.12816" fill="#575757" stroke="none"/><path d="M201.04089,231.16917c0,0 -3.66834,0.43842 -4.87195,1.53505c-1.29086,1.17614 -3.75712,3.69088 -4.01305,3.65641c-0.79622,-0.10725 -3.48797,-1.33113 -4.59025,-2.54092c-1.18537,-1.30097 -2.48156,-4.64448 -2.29075,-5.01125c0.36586,-0.70328 2.58656,-2.35669 3.8535,-3.51105c1.23275,-1.1232 2.08199,-4.73905 2.08199,-4.73905" fill="#575757" stroke="#434343"/><path d="M219.35471,194.94757c0,0 3.51029,-0.89606 4.83887,-2.10655c1.42489,-1.29827 4.42965,-4.03598 4.42965,-4.03598c0,0 3.58678,1.52566 4.7036,2.75142c1.17396,1.28847 2.17737,4.80073 2.17737,4.80073c0,0 -2.8551,2.60137 -4.25356,3.87554c-1.36071,1.23978 -2.63461,4.12816 -2.63461,4.12816" data-paper-data="{&quot;index&quot;:null}" fill="#575757" stroke="none"/><path d="M219.24048,193.83226c0,0 4.2871,-0.22749 5.4907,-1.32412c1.29086,-1.17614 3.75713,-3.69088 4.01304,-3.65641c0.79622,0.10725 3.48798,1.33112 4.59024,2.54091c1.18535,1.30098 2.48154,4.64445 2.29075,5.01126c-0.36586,0.70328 -2.58656,2.35667 -3.85351,3.51103c-1.23275,1.12321 -2.16715,4.64487 -2.16715,4.64487" data-paper-data="{&quot;index&quot;:null}" fill="#575757" stroke="#434343"/><path d="M227.74337,222.55645c0,0 0.87493,2.8113 2.05811,4.16429c1.26896,1.45109 3.94475,4.51107 3.94475,4.51107c0,0 -1.5985,3.55488 -2.84679,4.64652c-1.31216,1.14745 -4.84416,2.07897 -4.84416,2.07897c0,0 -2.54256,-2.90758 -3.78793,-4.33176c-1.21179,-1.38575 -4.07358,-2.71829 -4.07358,-2.71829" data-paper-data="{&quot;index&quot;:null}" fill="#575757" stroke="none"/><path d="M228.66637,222.35593c0,0 0.38506,3.68335 1.45695,4.9091c1.14957,1.31461 3.61343,3.83161 3.57375,4.0868c-0.12349,0.79388 -1.40202,3.46013 -2.63405,4.53747c-1.32491,1.15858 -4.69417,2.38625 -5.05697,2.18801c-0.69568,-0.38013 -2.30344,-2.63412 -3.43168,-3.92433c-1.0978,-1.2554 -4.60153,-2.1551 -4.60153,-2.1551" data-paper-data="{&quot;index&quot;:null}" fill="#575757" stroke="#434343"/><path d="M204.50413,193.35953c0,0 1.29386,-2.64479 1.36241,-4.44082c0.07355,-1.92623 0.22869,-5.9882 0.22869,-5.9882c0,0 3.6028,-1.48738 5.25989,-1.42412c1.74185,0.06653 4.94948,1.81397 4.94948,1.81397c0,0 -0.14738,3.85966 -0.21958,5.75015c-0.07024,1.8395 1.09575,4.7731 1.09575,4.7731" fill="#575757" stroke="none"/><path d="M216.1376,231.79404c0,0 -1.29384,2.64478 -1.36244,4.44082c-0.07355,1.92623 -0.2287,5.9882 -0.2287,5.9882c0,0 -3.60281,1.48736 -5.2599,1.4241c-1.74185,-0.06653 -4.94949,-1.81401 -4.94949,-1.81401c0,0 0.14743,-3.85963 0.2196,-5.75014c0.07024,-1.8395 -1.09575,-4.77308 -1.09575,-4.77308" data-paper-data="{&quot;index&quot;:null}" fill="#575757" stroke="none"/><path d="M190.73936,217.01553c0,0 -2.54634,-1.47822 -4.33297,-1.67401c-1.91616,-0.21004 -5.95691,-0.65295 -5.95691,-0.65295c0,0 -1.22805,-3.69926 -1.04737,-5.34768c0.18992,-1.73274 2.16056,-4.8083 2.16056,-4.8083c0,0 3.83949,0.42085 5.72009,0.62697c1.82984,0.20057 4.83879,-0.75435 4.83879,-0.75435" fill="#575757" stroke="none"/><path d="M190.03245,217.61169c0,0 -2.9737,-2.31537 -4.23136,-2.45323c-1.73593,-0.19029 -5.25323,-0.37681 -5.39663,-0.59155c-0.44616,-0.66816 -1.30859,-3.49652 -1.13027,-5.12338c0.19176,-1.74952 1.84221,-4.93311 2.24345,-5.03258c0.76947,-0.19073 3.47835,0.38126 5.1821,0.56804c1.65775,0.1817 4.96646,-1.40352 4.96646,-1.40352" fill="#575757" stroke="#434343"/><path d="M229.90235,208.13802c0,0 2.54633,1.47824 4.33296,1.67404c1.91616,0.21004 5.95691,0.65294 5.95691,0.65294c0,0 1.22805,3.69928 1.04737,5.34769c-0.18992,1.73274 -2.16055,4.80829 -2.16055,4.80829c0,0 -3.83948,-0.42084 -5.7201,-0.62696c-1.82984,-0.20057 -4.83881,0.75435 -4.83881,0.75435" data-paper-data="{&quot;index&quot;:null}" fill="#575757" stroke="none"/><path d="M230.35371,207.25931c0,0 2.86831,2.55839 4.4869,2.73582c1.73593,0.19029 5.25324,0.37676 5.39664,0.59153c0.44616,0.66816 1.30858,3.49653 1.13029,5.12342c-0.19176,1.74952 -1.84221,4.93311 -2.24349,5.03256c-0.76945,0.19073 -3.47835,-0.38126 -5.18212,-0.56804c-1.65775,-0.1817 -4.8858,1.5874 -4.8858,1.5874" data-paper-data="{&quot;index&quot;:null}" fill="#575757" stroke="#434343"/><path d="M217.0896,232.2591c0,0 -2.38744,2.8757 -2.44957,4.5028c-0.06664,1.74508 -0.00312,5.26672 -0.20719,5.42499c-0.63482,0.49245 -3.39488,1.55336 -5.0303,1.49089c-1.75871,-0.06717 -5.05137,-1.48757 -5.17906,-1.88081c-0.24484,-0.754 0.13356,-3.49662 0.19896,-5.20932c0.06364,-1.66647 -1.73146,-4.53969 -1.73146,-4.53969" data-paper-data="{&quot;index&quot;:null}" fill="#575757" stroke="#434343"/><path d="M194.20052,203.94309c0,0 -2.24219,-4.22872 -3.42536,-5.5817c-1.26896,-1.45108 -3.94476,-4.51107 -3.94476,-4.51107c0,0 1.59854,-3.5549 2.84683,-4.64652c1.31216,-1.14745 4.84415,-2.07897 4.84415,-2.07897c0,0 2.54257,2.90757 3.78794,4.33175c0.36375,0.41597 0.87619,0.82715 1.41526,1.19893c1.25675,0.86674 2.6583,1.51934 2.6583,1.51934" fill="#575757" stroke="none"/><path d="M192.18627,202.17889c0,0 -0.59599,-3.06458 -1.66788,-4.29033c-1.14957,-1.31461 -3.61343,-3.83163 -3.57374,-4.08682c0.12349,-0.79388 1.40201,-3.46012 2.63405,-4.53746c1.32491,-1.15858 4.69417,-2.38626 5.05697,-2.18802c0.69568,0.38013 2.30343,2.63413 3.43167,3.92434c1.0978,1.2554 4.31895,2.41062 4.31895,2.41062" fill="#575757" stroke="#434343"/><path d="M215.12611,218.05435c-2.95936,2.69637 -7.54429,2.48315 -10.24066,-0.47621c-2.69637,-2.95936 -2.48316,-7.5443 0.4762,-10.24067c2.95936,-2.69637 7.54429,-2.48318 10.24067,0.47619c2.69637,2.95936 2.48316,7.54431 -0.47621,10.24069z" fill="#747474" stroke="#434343"/><path d="M201.63595,193.35778c0,0 0.90569,-0.22938 1.41747,-0.40488c0.49568,-0.16997 1.60642,-0.63205 1.60642,-0.63205c0,0 1.28418,-2.39174 1.34631,-4.01884c0.06664,-1.74508 0.00313,-5.26673 0.2072,-5.42499c0.63482,-0.49245 3.39488,-1.55335 5.03032,-1.49087c1.75871,0.06717 5.05135,1.48758 5.17903,1.8808c0.24484,0.754 -0.13354,3.4966 -0.19893,5.20932c-0.06364,1.66647 1.8031,4.90293 1.8031,4.90293" fill="#575757" stroke="#434343"/></g></g><g stroke-width="1.5" stroke-linecap="butt"><g><path d="M146.18484,167.09184c1.46279,-6.06367 7.5642,-9.79345 13.62789,-8.33065c6.06368,1.46279 9.79345,7.5642 8.33064,13.62789c-1.46279,6.06367 -7.56419,9.79344 -13.62788,8.33063c-6.06367,-1.46279 -9.79345,-7.5642 -8.33065,-13.62787zM158.07909,166.03068c-2.09091,-0.5044 -4.19486,0.78173 -4.69927,2.87265c-0.5044,2.09091 0.78173,4.19486 2.87264,4.69927c2.09092,0.5044 4.19486,-0.78172 4.69927,-2.87264c0.5044,-2.09091 -0.78172,-4.19487 -2.87264,-4.69928z" fill="#ff680b" stroke="#b44500"/><path d="M158.25768,180.45265c0,0 -0.96171,1.2559 -1.18816,2.19459c-0.24286,1.00674 -0.75501,3.12973 -0.75501,3.12973c0,0 -2.05521,0.40161 -2.92126,0.19268c-0.91035,-0.21962 -2.41465,-1.47991 -2.41465,-1.47991c0,0 0.48664,-2.01725 0.725,-3.00531c0.23193,-0.9614 -0.07133,-2.63007 -0.07133,-2.63007" fill="#ff680b" stroke="none"/><path d="M158.63569,180.80691c0,0 -1.4999,1.29995 -1.70506,2.15034c-0.22002,0.91205 -0.55976,2.77363 -0.684,2.83538c-0.38652,0.19211 -1.95266,0.45839 -2.80743,0.25219c-0.91919,-0.22174 -2.50291,-1.31877 -2.52849,-1.53941c-0.04906,-0.42308 0.44087,-1.82752 0.65681,-2.72267c0.21011,-0.87099 -0.50117,-2.73539 -0.50117,-2.73539" fill="#ff680b" stroke="#b44500"/><path d="M155.87315,159.17662c0,0 1.29176,-1.45593 1.51821,-2.39462c0.24286,-1.00674 0.75501,-3.12973 0.75501,-3.12973c0,0 2.05521,-0.40161 2.92126,-0.19268c0.91036,0.21962 2.41465,1.47991 2.41465,1.47991c0,0 -0.48663,2.01725 -0.72499,3.00531c-0.23192,0.9614 0.07132,2.63007 0.07132,2.63007" data-paper-data="{&quot;index&quot;:null}" fill="#ff680b" stroke="none"/><path d="M155.4864,158.71485c0,0 1.83872,-1.39247 2.04387,-2.24286c0.22002,-0.91205 0.55977,-2.77364 0.684,-2.83539c0.38652,-0.19211 1.95266,-0.45839 2.80742,-0.25218c0.91919,0.22174 2.50289,1.31877 2.52849,1.53942c0.04906,0.42308 -0.44087,1.8275 -0.65682,2.72266c-0.21011,0.87099 0.43491,2.71914 0.43491,2.71914" data-paper-data="{&quot;index&quot;:null}" fill="#ff680b" stroke="#b44500"/><path d="M167.92088,168.93251c0,0 1.236,0.98716 2.16988,1.2327c1.0016,0.26334 3.11367,0.81871 3.11367,0.81871c0,0 0.35959,2.06296 0.13305,2.92459c-0.23814,0.9057 -1.52887,2.38395 -1.52887,2.38395c0,0 -2.00689,-0.5277 -2.98989,-0.78618c-0.95648,-0.2515 -2.63099,0.01766 -2.63099,0.01766" data-paper-data="{&quot;index&quot;:null}" fill="#ff680b" stroke="none"/><path d="M168.27109,168.5653c0,0 1.28074,1.52266 2.12678,1.74511c0.90738,0.23859 2.76161,0.61623 2.82082,0.74171c0.18418,0.39038 0.41846,1.96162 0.19486,2.81199c-0.24045,0.91449 -1.36959,2.47547 -1.5907,2.49656c-0.42399,0.04043 -1.81814,-0.47806 -2.70868,-0.71222c-0.86651,-0.22784 -2.69624,0.42722 -2.69624,0.42722" data-paper-data="{&quot;index&quot;:null}" fill="#ff680b" stroke="#b44500"/><path d="M148.78814,162.94313c0,0 -0.22099,-1.56632 -0.73147,-2.38598c-0.54746,-0.87909 -1.70191,-2.73289 -1.70191,-2.73289c0,0 1.1548,-1.74687 1.91106,-2.21784c0.79495,-0.49505 2.74828,-0.68379 2.74828,-0.68379c0,0 1.09696,1.76147 1.63425,2.62425c0.52281,0.83951 1.92514,1.79341 1.92514,1.79341" fill="#ff680b" stroke="none"/><path d="M165.54009,176.53777c0,0 0.22101,1.5663 0.73146,2.38598c0.54746,0.87909 1.7019,2.7329 1.7019,2.7329c0,0 -1.15481,1.74686 -1.91107,2.21784c-0.79495,0.49505 -2.74829,0.68378 -2.74829,0.68378c0,0 -1.09693,-1.76147 -1.63425,-2.62425c-0.5228,-0.83951 -1.92513,-1.7934 -1.92513,-1.7934" data-paper-data="{&quot;index&quot;:null}" fill="#ff680b" stroke="none"/><path d="M149.7897,177.6131c0,0 -1.57805,0.10934 -2.43185,0.56036c-0.91571,0.48371 -2.84676,1.50374 -2.84676,1.50374c0,0 -1.66055,-1.27583 -2.07667,-2.06359c-0.43741,-0.82806 -0.48707,-2.78987 -0.48707,-2.78987c0,0 1.83486,-0.96922 2.73358,-1.44396c0.87447,-0.46192 1.92546,-1.79304 1.92546,-1.79304" fill="#ff680b" stroke="none"/><path d="M149.65478,178.09123c0,0 -2.02032,-0.13437 -2.62134,0.18311c-0.82959,0.43821 -2.45054,1.41463 -2.57902,1.36229c-0.39973,-0.16286 -1.63531,-1.16137 -2.04599,-1.93883c-0.44165,-0.83608 -0.66629,-2.7495 -0.51775,-2.91461c0.28487,-0.31662 1.66228,-0.87806 2.4765,-1.30814c0.79222,-0.41848 1.78673,-2.1203 1.78673,-2.1203" fill="#ff680b" stroke="#b44500"/><path d="M164.53852,161.8678c0,0 1.57805,-0.10932 2.43185,-0.56035c0.91571,-0.48371 2.84675,-1.50374 2.84675,-1.50374c0,0 1.66056,1.27583 2.07668,2.0636c0.43741,0.82806 0.48707,2.78986 0.48707,2.78986c0,0 -1.83485,0.96923 -2.73358,1.44397c-0.87447,0.46192 -1.92547,1.79304 -1.92547,1.79304" data-paper-data="{&quot;index&quot;:null}" fill="#ff680b" stroke="none"/><path d="M164.47465,161.34093c0,0 2.04664,0.27423 2.82015,-0.13435c0.82959,-0.43821 2.45053,-1.41466 2.57901,-1.3623c0.39973,0.16286 1.63531,1.16137 2.04601,1.93885c0.44165,0.83608 0.6663,2.7495 0.51773,2.91461c-0.28487,0.31661 -1.66228,0.87806 -2.47651,1.30814c-0.79223,0.41848 -1.69545,2.17781 -1.69545,2.17781" data-paper-data="{&quot;index&quot;:null}" fill="#ff680b" stroke="#b44500"/><path d="M166.10369,176.45792c0,0 -0.19595,1.99843 0.26649,2.74101c0.49597,0.79642 1.58495,2.34398 1.54183,2.47585c-0.13409,0.41028 -1.04243,1.7136 -1.78881,2.1784c-0.80264,0.49984 -2.6953,0.85968 -2.87054,0.7232c-0.33603,-0.26169 -0.99377,-1.59579 -1.48054,-2.37743c-0.47363,-0.76054 -2.13764,-1.49809 -2.13764,-1.49809" data-paper-data="{&quot;index&quot;:null}" fill="#ff680b" stroke="#b44500"/><path d="M147.39207,170.75497c0,0 -2.2712,-1.20591 -3.20508,-1.45145c-1.00159,-0.26334 -3.11366,-0.81871 -3.11366,-0.81871c0,0 -0.35958,-2.06297 -0.13304,-2.9246c0.23814,-0.9057 1.52887,-2.38394 1.52887,-2.38394c0,0 2.00689,0.52769 2.98989,0.78617c0.28712,0.07549 0.63894,0.10407 0.99074,0.1071c0.82016,0.00706 1.64024,-0.12476 1.64024,-0.12476" fill="#ff680b" stroke="none"/><path d="M145.9646,170.57681c0,0 -1.18819,-1.18385 -2.03424,-1.40631c-0.90737,-0.23859 -2.76162,-0.61624 -2.82083,-0.74172c-0.18418,-0.39038 -0.41847,-1.96162 -0.19486,-2.81199c0.24046,-0.91449 1.36959,-2.47548 1.5907,-2.49656c0.42399,-0.04043 1.81814,0.47807 2.70868,0.71223c0.86651,0.22784 2.64748,-0.22843 2.64748,-0.22843" fill="#ff680b" stroke="#b44500"/><path d="M160.95171,170.72995c-0.5044,2.09091 -2.60835,3.37704 -4.69927,2.87264c-2.09091,-0.5044 -3.37704,-2.60836 -2.87264,-4.69927c0.5044,-2.09091 2.60835,-3.37705 4.69927,-2.87265c2.09092,0.5044 3.37705,2.60836 2.87264,4.69929z" fill="#6c6b6b" stroke="#b44500"/><path d="M147.51163,163.80625c0,0 0.33384,-0.37484 0.50866,-0.60707c0.16932,-0.22492 0.52428,-0.76503 0.52428,-0.76503c0,0 -0.14909,-1.45083 -0.61153,-2.1934c-0.49597,-0.79642 -1.58495,-2.34399 -1.54183,-2.47586c0.13409,-0.41028 1.04244,-1.71359 1.78883,-2.17839c0.80264,-0.49984 2.6953,-0.85967 2.87054,-0.7232c0.33603,0.26169 0.99376,1.59578 1.48054,2.37742c0.47363,0.76054 2.27893,1.63811 2.27893,1.63811" fill="#ff680b" stroke="#b44500"/></g><g><path d="M314.87744,124.72959c4.61078,-4.20102 11.75418,-3.86886 15.95521,0.74194c4.20102,4.61078 3.86886,11.75418 -0.74194,15.95521c-4.61078,4.20102 -11.75416,3.86885 -15.95519,-0.74195c-4.20102,-4.61078 -3.86886,-11.75418 0.74192,-15.9552zM325.32156,130.51919c-1.44862,-1.58991 -3.91188,-1.70446 -5.5018,-0.25583c-1.58991,1.44862 -1.70446,3.91188 -0.25584,5.5018c1.44862,1.58991 3.91188,1.70446 5.5018,0.25584c1.58991,-1.44862 1.70446,-3.91188 0.25584,-5.5018z" fill="#ff680b" stroke="#b44500"/><path d="M317.384,142.56163c0,0 -1.50046,0.5008 -2.21424,1.15114c-0.76552,0.6975 -2.37983,2.16833 -2.37983,2.16833c0,0 -1.927,-0.81966 -2.52701,-1.4782c-0.63071,-0.69223 -1.1698,-2.57919 -1.1698,-2.57919c0,0 1.53391,-1.39758 2.28523,-2.08213c0.73104,-0.66607 1.41544,-2.21786 1.41544,-2.21786" fill="#ff680b" stroke="none"/><path d="M317.49841,143.06691c0,0 -1.97082,0.23554 -2.61746,0.82471c-0.69351,0.63188 -2.01851,1.98292 -2.156,1.9644c-0.42777,-0.05762 -1.87392,-0.71515 -2.46612,-1.36511c-0.63684,-0.69895 -1.33322,-2.49525 -1.23071,-2.69229c0.19656,-0.37784 1.38963,-1.26613 2.07029,-1.88631c0.6623,-0.60343 1.11855,-2.54605 1.11855,-2.54605" fill="#ff680b" stroke="#b44500"/><path d="M327.33751,123.60686c0,0 1.88591,-0.4814 2.59969,-1.13174c0.76552,-0.6975 2.37983,-2.16833 2.37983,-2.16833c0,0 1.927,0.81966 2.52701,1.4782c0.63071,0.69223 1.16979,2.57919 1.16979,2.57919c0,0 -1.53391,1.39758 -2.28522,2.08213c-0.73104,0.66607 -1.41545,2.21786 -1.41545,2.21786" data-paper-data="{&quot;index&quot;:null}" fill="#ff680b" stroke="none"/><path d="M327.27614,123.00766c0,0 2.30325,-0.12222 2.94987,-0.71138c0.69351,-0.63188 2.01852,-1.98292 2.15601,-1.9644c0.42777,0.05762 1.87392,0.71515 2.46611,1.3651c0.63683,0.69895 1.33321,2.49523 1.2307,2.6923c-0.19656,0.37784 -1.38963,1.26612 -2.0703,1.8863c-0.6623,0.60344 -1.1643,2.49545 -1.1643,2.49545" data-paper-data="{&quot;index&quot;:null}" fill="#ff680b" stroke="#b44500"/><path d="M331.84432,138.43973c0,0 0.47006,1.51037 1.10572,2.23726c0.68175,0.7796 2.11932,2.42357 2.11932,2.42357c0,0 -0.85879,1.90986 -1.52944,2.49634c-0.70496,0.61647 -2.60253,1.11693 -2.60253,1.11693c0,0 -1.36598,-1.56209 -2.03506,-2.32724c-0.65103,-0.74449 -2.18853,-1.4604 -2.18853,-1.4604" data-paper-data="{&quot;index&quot;:null}" fill="#ff680b" stroke="none"/><path d="M332.3402,138.332c0,0 0.20687,1.97888 0.78275,2.63741c0.6176,0.70627 1.94132,2.05853 1.92,2.19563c-0.06635,0.42651 -0.75324,1.85896 -1.41514,2.43776c-0.7118,0.62244 -2.52194,1.28202 -2.71685,1.17551c-0.37375,-0.20423 -1.23753,-1.41518 -1.84367,-2.10835c-0.5898,-0.67446 -2.47217,-1.15783 -2.47217,-1.15783" data-paper-data="{&quot;index&quot;:null}" fill="#ff680b" stroke="#b44500"/><path d="M319.35903,122.75369c0,0 0.69513,-1.42091 0.73195,-2.38583c0.03951,-1.03487 0.12286,-3.21716 0.12286,-3.21716c0,0 1.93561,-0.79909 2.82587,-0.76511c0.93581,0.03574 2.65911,0.97456 2.65911,0.97456c0,0 -0.07918,2.0736 -0.11797,3.08926c-0.03774,0.98827 0.58869,2.56435 0.58869,2.56435" fill="#ff680b" stroke="none"/><path d="M325.60911,143.40262c0,0 -0.69511,1.42091 -0.73197,2.38583c-0.03951,1.03487 -0.12287,3.21716 -0.12287,3.21716c0,0 -1.93561,0.79908 -2.82588,0.7651c-0.93581,-0.03574 -2.65912,-0.97457 -2.65912,-0.97457c0,0 0.07921,-2.07358 0.11798,-3.08926c0.03774,-0.98827 -0.5887,-2.56434 -0.5887,-2.56434" data-paper-data="{&quot;index&quot;:null}" fill="#ff680b" stroke="none"/><path d="M311.96392,135.46287c0,0 -1.36803,-0.79417 -2.32789,-0.89936c-1.02946,-0.11284 -3.20034,-0.3508 -3.20034,-0.3508c0,0 -0.65976,-1.98743 -0.56269,-2.87304c0.10204,-0.93091 1.16076,-2.58325 1.16076,-2.58325c0,0 2.06276,0.2261 3.07312,0.33684c0.98308,0.10776 2.59964,-0.40527 2.59964,-0.40527" fill="#ff680b" stroke="none"/><path d="M311.58413,135.78316c0,0 -1.59762,-1.24393 -2.27329,-1.318c-0.93263,-0.10224 -2.82229,-0.20244 -2.89934,-0.31781c-0.2397,-0.35897 -0.70304,-1.8785 -0.60724,-2.75253c0.10302,-0.93993 0.98972,-2.65032 1.2053,-2.70376c0.4134,-0.10247 1.86875,0.20483 2.78409,0.30518c0.89063,0.09762 2.66823,-0.75404 2.66823,-0.75404" fill="#ff680b" stroke="#b44500"/><path d="M333.00423,130.69343c0,0 1.36802,0.79418 2.32788,0.89937c1.02946,0.11284 3.20034,0.35079 3.20034,0.35079c0,0 0.65977,1.98743 0.5627,2.87304c-0.10204,0.93091 -1.16075,2.58325 -1.16075,2.58325c0,0 -2.06276,-0.22609 -3.07312,-0.33683c-0.98308,-0.10776 -2.59965,0.40527 -2.59965,0.40527" data-paper-data="{&quot;index&quot;:null}" fill="#ff680b" stroke="none"/><path d="M333.24672,130.22134c0,0 1.541,1.3745 2.41058,1.46982c0.93263,0.10224 2.82231,0.20242 2.89934,0.3178c0.2397,0.35897 0.70303,1.8785 0.60725,2.75256c-0.10302,0.93993 -0.98973,2.65031 -1.20532,2.70374c-0.41339,0.10247 -1.86874,-0.20483 -2.78409,-0.30518c-0.89062,-0.09762 -2.6249,0.85283 -2.6249,0.85283" data-paper-data="{&quot;index&quot;:null}" fill="#ff680b" stroke="#b44500"/><path d="M326.12057,143.65247c0,0 -1.28266,1.54497 -1.31603,2.41913c-0.03581,0.93755 -0.00167,2.82954 -0.11131,2.91457c-0.34106,0.26457 -1.8239,0.83454 -2.70253,0.80098c-0.94487,-0.03609 -2.71384,-0.7992 -2.78244,-1.01047c-0.13154,-0.40509 0.07175,-1.87856 0.10689,-2.7987c0.03419,-0.89531 -0.93023,-2.43895 -0.93023,-2.43895" data-paper-data="{&quot;index&quot;:null}" fill="#ff680b" stroke="#b44500"/><path d="M313.82343,128.4397c0,0 -1.20462,-2.27188 -1.84028,-2.99877c-0.68175,-0.77959 -2.11932,-2.42357 -2.11932,-2.42357c0,0 0.85881,-1.90987 1.52946,-2.49634c0.70496,-0.61647 2.60251,-1.11693 2.60251,-1.11693c0,0 1.366,1.56209 2.03507,2.32723c0.19543,0.22348 0.47073,0.44439 0.76035,0.64413c0.67519,0.46565 1.42817,0.81626 1.42817,0.81626" fill="#ff680b" stroke="none"/><path d="M312.74127,127.49188c0,0 -0.3202,-1.64645 -0.89607,-2.30498c-0.6176,-0.70627 -1.94131,-2.05854 -1.91999,-2.19564c0.06635,-0.42651 0.75323,-1.85895 1.41514,-2.43775c0.7118,-0.62244 2.52194,-1.28202 2.71685,-1.17551c0.37375,0.20423 1.23752,1.41519 1.84367,2.10835c0.5898,0.67446 2.32035,1.29511 2.32035,1.29511" fill="#ff680b" stroke="#b44500"/><path d="M325.06569,136.02098c-1.58991,1.44862 -4.05317,1.33407 -5.50179,-0.25584c-1.44862,-1.58991 -1.33407,-4.05318 0.25584,-5.5018c1.58991,-1.44862 4.05317,-1.33409 5.5018,0.25583c1.44862,1.58991 1.33408,4.05318 -0.25584,5.50181z" fill="#6c6b6b" stroke="#b44500"/><path d="M317.8181,122.75275c0,0 0.48658,-0.12323 0.76154,-0.21752c0.2663,-0.09132 0.86304,-0.33957 0.86304,-0.33957c0,0 0.68993,-1.28496 0.72331,-2.15912c0.03581,-0.93754 0.00168,-2.82955 0.11131,-2.91457c0.34106,-0.26457 1.8239,-0.83454 2.70254,-0.80097c0.94487,0.03609 2.71383,0.79921 2.78243,1.01046c0.13154,0.40509 -0.07174,1.87855 -0.10688,2.79871c-0.03419,0.89531 0.96872,2.6341 0.96872,2.6341" fill="#ff680b" stroke="#b44500"/></g><path d="M328.86509,140.23553c0,1.93466 -0.17196,3.69736 -0.51591,5.28807c-0.34395,1.59071 -0.88134,3.05246 -1.61221,4.38522c-0.73087,1.33276 -1.6767,2.57954 -2.8375,3.74034c-1.11781,1.11781 -2.49356,2.19262 -4.12727,3.22444l8.96392,15.92869l-16.96051,3.28892l-5.73949,-15.99318l-4.70767,0.12898l-0.64489,15.67074h-16.18664c0.12897,-5.71798 0.23645,-11.41448 0.32245,-17.08948c0.12897,-5.675 0.27945,-11.37151 0.45141,-17.08949c0.04298,-2.88048 0.08599,-5.73949 0.12898,-8.57699c0.04298,-2.8375 0.15049,-5.69651 0.32245,-8.57699c1.7627,-0.64488 3.48239,-1.18229 5.15909,-1.61221c1.71969,-0.42992 3.4394,-0.75236 5.15909,-0.96733c1.71969,-0.25796 3.46088,-0.42992 5.22358,-0.51591c1.7627,-0.08599 3.56838,-0.12897 5.41705,-0.12897c2.88049,0 5.6535,0.40843 8.31903,1.22528c2.66554,0.77387 5.00861,1.95616 7.02926,3.54688c2.06363,1.54773 3.71884,3.5039 4.96563,5.86847c1.24679,2.36458 1.87017,5.11611 1.87017,8.25455zM312.03354,141.46082c0,-1.0748 -0.15048,-2.04214 -0.45141,-2.90199c-0.30094,-0.90284 -0.73088,-1.6552 -1.28978,-2.2571c-0.5589,-0.64488 -1.26827,-1.13929 -2.12812,-1.48324c-0.81685,-0.38693 -1.78418,-0.5804 -2.90199,-0.5804c-0.51591,0 -1.01031,0.04299 -1.48323,0.12898c-0.47293,0.04298 -0.92435,0.12897 -1.35427,0.25795l-0.64488,13.92955h0.90284c1.0748,0 2.17111,-0.12897 3.28892,-0.38693c1.11781,-0.25796 2.12813,-0.66639 3.03097,-1.22529c0.90284,-0.6019 1.63372,-1.35426 2.19261,-2.2571c0.5589,-0.90284 0.83835,-1.97764 0.83835,-3.22443z" fill="#ff853a" stroke="#ce4f00"/><path d="M191.38405,168.804c-1.1608,1.46174 -2.60104,2.75151 -4.32074,3.86932c-1.71969,1.11781 -3.58986,2.04214 -5.61052,2.77301c-1.97764,0.73087 -3.99829,1.26827 -6.06193,1.61222c-2.06363,0.34395 -4.04128,0.51591 -5.93295,0.51591c-3.65435,0 -7.00777,-0.64489 -10.06023,-1.93466c-3.05247,-1.28977 -5.69651,-3.07395 -7.93211,-5.35255c-2.19261,-2.32159 -3.9123,-5.03012 -5.15909,-8.12557c-1.24679,-3.09545 -1.87017,-6.44886 -1.87017,-10.06022c0,-2.70853 0.30095,-5.37406 0.90285,-7.99659c0.64488,-2.62253 1.54773,-5.09461 2.70852,-7.41619c1.1608,-2.32159 2.57954,-4.44971 4.25625,-6.38438c1.67671,-1.93466 3.56838,-3.61137 5.675,-5.03011c2.14963,-1.41875 4.4927,-2.51505 7.02926,-3.28892c2.53656,-0.77387 5.24509,-1.1608 8.12557,-1.1608c1.0748,0 2.21411,0.04298 3.4179,0.12897c1.24679,0.08599 2.47206,0.23646 3.67585,0.45143c1.24679,0.21497 2.42907,0.51591 3.54688,0.90284c1.1608,0.38693 2.2356,0.83835 3.22443,1.35426l-1.0963,14.38097c-1.37577,-0.51591 -2.816,-0.85986 -4.32074,-1.03182c-1.50474,-0.21497 -2.96649,-0.32244 -4.38524,-0.32244c-2.02065,0 -3.9123,0.32245 -5.675,0.96733c-1.71969,0.6019 -3.22442,1.48323 -4.5142,2.64403c-1.28978,1.11781 -2.32159,2.51506 -3.09546,4.19177c-0.73087,1.63371 -1.09631,3.50388 -1.09631,5.61051c0,1.28977 0.17196,2.55804 0.51591,3.80483c0.38693,1.20379 0.92434,2.2786 1.61221,3.22443c0.73088,0.90284 1.61222,1.6552 2.64403,2.2571c1.0748,0.5589 2.32159,0.83836 3.74034,0.83836c0.94583,0 1.91316,-0.12898 2.90199,-0.38693c1.03181,-0.25796 1.91316,-0.68787 2.64404,-1.28977l0.19346,-2.90198l-9.0284,-0.12898l0.45141,-11.28551c3.74034,-0.12897 7.45918,-0.23645 11.15654,-0.32244c3.74034,-0.08599 7.50219,-0.21498 11.28551,-0.38694z" fill="#ff853a" stroke="#ce4f00"/><path d="M284.01866,173.25371l-18.63722,2.38608l-2.2571,-8.5125h-8.57699l-1.87017,8.5125l-19.21762,-1.87017l14.96137,-50.10767l20.9588,-1.03181zM261.77006,155.64832l-2.90199,-13.09119l-2.77301,13.09119z" fill="#ff853a" stroke="#ce4f00"/><path d="M236.2036,146.104c0,2.19261 -0.15048,4.36373 -0.45142,6.51335c-4.25625,0.30094 -8.5125,0.75236 -12.76875,1.35426c-4.21327,0.6019 -8.44802,1.20378 -12.70427,1.80568c0.64489,1.80568 1.6552,3.24594 3.03097,4.32074c1.41875,1.0748 3.09546,1.61221 5.03012,1.61221c0.98883,0 2.08513,-0.17196 3.28891,-0.51591c1.20379,-0.38693 2.38608,-0.85985 3.54688,-1.41875c1.1608,-0.5589 2.27861,-1.1608 3.35341,-1.80568c1.11781,-0.68788 2.06363,-1.28977 2.8375,-1.80568l-1.80569,17.08948c-0.98883,0.73088 -2.06363,1.37577 -3.22442,1.93466c-1.11781,0.51591 -2.30008,0.94582 -3.54687,1.28977c-1.20378,0.30094 -2.45056,0.51591 -3.74034,0.64489c-1.24679,0.17196 -2.47208,0.25795 -3.67586,0.25795c-2.45056,0 -4.70766,-0.32245 -6.7713,-0.96733c-2.06363,-0.68787 -3.93381,-1.63371 -5.61051,-2.8375c-1.63372,-1.24679 -3.09545,-2.68703 -4.38522,-4.32074c-1.24679,-1.67671 -2.27861,-3.48238 -3.09546,-5.41704c-0.81685,-1.97764 -1.44025,-4.04129 -1.87017,-6.19091c-0.42992,-2.19261 -0.64488,-4.40672 -0.64488,-6.64232c0,-2.32159 0.21496,-4.64319 0.64488,-6.96478c0.42992,-2.36458 1.0748,-4.62169 1.93466,-6.77131c0.85986,-2.14963 1.93466,-4.14877 3.22443,-5.99744c1.33276,-1.84867 2.88049,-3.46088 4.64319,-4.83665c1.7627,-1.37577 3.74034,-2.45057 5.93295,-3.22443c2.2356,-0.77387 4.68617,-1.16079 7.35171,-1.16079c2.2356,0 4.27775,0.30094 6.12642,0.90284c1.84867,0.6019 3.48239,1.46174 4.90114,2.57954c1.46173,1.0748 2.73002,2.36458 3.80482,3.86932c1.0748,1.50474 1.95616,3.15994 2.64404,4.96562c0.68787,1.7627 1.1823,3.65435 1.48324,5.675c0.34395,1.97764 0.51591,3.99829 0.51591,6.06193zM221.17776,144.16934c0,-0.73088 -0.086,-1.46174 -0.25796,-2.19261c-0.12897,-0.73088 -0.36542,-1.39725 -0.70937,-1.99915c-0.34395,-0.6019 -0.79537,-1.0963 -1.35426,-1.48324c-0.51591,-0.38693 -1.1823,-0.5804 -1.99915,-0.5804c-1.03181,0 -1.93466,0.27945 -2.70852,0.83835c-0.73087,0.51591 -1.37577,1.1823 -1.93466,1.99915c-0.5589,0.81685 -1.01031,1.69821 -1.35426,2.64404c-0.34395,0.94583 -0.6019,1.82718 -0.77387,2.64403l11.09205,-1.09631z" fill="#ff853a" stroke="#ce4f00"/></g><path d="M205.69047,217.2381l9.54762,-9.04021" fill="none" stroke="#434343" stroke-width="1.5" stroke-linecap="round"/></g></g></svg>