<svg version="1.1" xmlns="http://www.w3.org/2000/svg" xmlns:xlink="http://www.w3.org/1999/xlink" width="68.43018" height="77.07404" viewBox="0,0,68.43018,77.07404"><defs><radialGradient cx="229.00553" cy="192.54587" r="6.22663" gradientUnits="userSpaceOnUse" id="color-1"><stop offset="0" stop-color="#737373"/><stop offset="1" stop-color="#575757"/></radialGradient><radialGradient cx="250.25364" cy="194.67885" r="23.2858" gradientUnits="userSpaceOnUse" id="color-2"><stop offset="0" stop-color="#747474"/><stop offset="1" stop-color="#5f5c5c"/></radialGradient></defs><g transform="translate(-205.99622,-141.56949)"><g data-paper-data="{&quot;isPaintingLayer&quot;:true}" fill-rule="nonzero" stroke-linecap="butt" stroke-linejoin="miter" stroke-miterlimit="10" stroke-dasharray="" stroke-dashoffset="0" style="mix-blend-mode: normal"><g stroke-width="1.5"><g><path d="M211.82153,188.58686c1.46279,-6.06367 7.5642,-9.79345 13.62789,-8.33065c6.06368,1.46279 9.79345,7.5642 8.33064,13.62789c-1.46279,6.06367 -7.56419,9.79344 -13.62788,8.33063c-6.06367,-1.46279 -9.79345,-7.5642 -8.33065,-13.62787zM223.71578,187.5257c-2.09091,-0.5044 -4.19486,0.78173 -4.69927,2.87265c-0.5044,2.09091 0.78173,4.19486 2.87264,4.69927c2.09092,0.5044 4.19486,-0.78172 4.69927,-2.87264c0.5044,-2.09091 -0.78172,-4.19487 -2.87264,-4.69928z" fill="#ff680b" stroke="#b44500"/><path d="M223.89437,201.94767c0,0 -0.96171,1.2559 -1.18816,2.19459c-0.24286,1.00674 -0.75501,3.12973 -0.75501,3.12973c0,0 -2.05521,0.40161 -2.92126,0.19268c-0.91035,-0.21962 -2.41465,-1.47991 -2.41465,-1.47991c0,0 0.48664,-2.01725 0.725,-3.00531c0.23193,-0.9614 -0.07133,-2.63007 -0.07133,-2.63007" fill="#ff680b" stroke="none"/><path d="M224.27238,202.30193c0,0 -1.4999,1.29995 -1.70506,2.15034c-0.22002,0.91205 -0.55976,2.77363 -0.684,2.83538c-0.38652,0.19211 -1.95266,0.45839 -2.80743,0.25219c-0.91919,-0.22174 -2.50291,-1.31877 -2.52849,-1.53941c-0.04906,-0.42308 0.44087,-1.82752 0.65681,-2.72267c0.21011,-0.87099 -0.50117,-2.73539 -0.50117,-2.73539" fill="#ff680b" stroke="#b44500"/><path d="M221.50984,180.67164c0,0 1.29176,-1.45593 1.51821,-2.39462c0.24286,-1.00674 0.75501,-3.12973 0.75501,-3.12973c0,0 2.05521,-0.40161 2.92126,-0.19268c0.91036,0.21962 2.41465,1.47991 2.41465,1.47991c0,0 -0.48663,2.01725 -0.72499,3.00531c-0.23192,0.9614 0.07132,2.63007 0.07132,2.63007" data-paper-data="{&quot;index&quot;:null}" fill="#ff680b" stroke="none"/><path d="M221.12309,180.20987c0,0 1.83872,-1.39247 2.04387,-2.24286c0.22002,-0.91205 0.55977,-2.77364 0.684,-2.83539c0.38652,-0.19211 1.95266,-0.45839 2.80742,-0.25218c0.91919,0.22174 2.50289,1.31877 2.52849,1.53942c0.04906,0.42308 -0.44087,1.8275 -0.65682,2.72266c-0.21011,0.87099 0.43491,2.71914 0.43491,2.71914" data-paper-data="{&quot;index&quot;:null}" fill="#ff680b" stroke="#b44500"/><path d="M233.55757,190.42753c0,0 1.236,0.98716 2.16988,1.2327c1.0016,0.26334 3.11367,0.81871 3.11367,0.81871c0,0 0.35959,2.06296 0.13305,2.92459c-0.23814,0.9057 -1.52887,2.38395 -1.52887,2.38395c0,0 -2.00689,-0.5277 -2.98989,-0.78618c-0.95648,-0.2515 -2.63099,0.01766 -2.63099,0.01766" data-paper-data="{&quot;index&quot;:null}" fill="#ff680b" stroke="none"/><path d="M233.90778,190.06032c0,0 1.28074,1.52266 2.12678,1.74511c0.90738,0.23859 2.76161,0.61623 2.82082,0.74171c0.18418,0.39038 0.41846,1.96162 0.19486,2.81199c-0.24045,0.91449 -1.36959,2.47547 -1.5907,2.49656c-0.42399,0.04043 -1.81814,-0.47806 -2.70868,-0.71222c-0.86651,-0.22784 -2.69624,0.42722 -2.69624,0.42722" data-paper-data="{&quot;index&quot;:null}" fill="#ff680b" stroke="#b44500"/><path d="M214.42483,184.43815c0,0 -0.22099,-1.56632 -0.73147,-2.38598c-0.54746,-0.87909 -1.70191,-2.73289 -1.70191,-2.73289c0,0 1.1548,-1.74687 1.91106,-2.21784c0.79495,-0.49505 2.74828,-0.68379 2.74828,-0.68379c0,0 1.09696,1.76147 1.63425,2.62425c0.52281,0.83951 1.92514,1.79341 1.92514,1.79341" fill="#ff680b" stroke="none"/><path d="M231.17678,198.03279c0,0 0.22101,1.5663 0.73146,2.38598c0.54746,0.87909 1.7019,2.7329 1.7019,2.7329c0,0 -1.15481,1.74686 -1.91107,2.21784c-0.79495,0.49505 -2.74829,0.68378 -2.74829,0.68378c0,0 -1.09693,-1.76147 -1.63425,-2.62425c-0.5228,-0.83951 -1.92513,-1.7934 -1.92513,-1.7934" data-paper-data="{&quot;index&quot;:null}" fill="#ff680b" stroke="none"/><path d="M215.42639,199.10812c0,0 -1.57805,0.10934 -2.43185,0.56036c-0.91571,0.48371 -2.84676,1.50374 -2.84676,1.50374c0,0 -1.66055,-1.27583 -2.07667,-2.06359c-0.43741,-0.82806 -0.48707,-2.78987 -0.48707,-2.78987c0,0 1.83486,-0.96922 2.73358,-1.44396c0.87447,-0.46192 1.92546,-1.79304 1.92546,-1.79304" fill="#ff680b" stroke="none"/><path d="M215.29147,199.58625c0,0 -2.02032,-0.13437 -2.62134,0.18311c-0.82959,0.43821 -2.45054,1.41463 -2.57902,1.36229c-0.39973,-0.16286 -1.63531,-1.16137 -2.04599,-1.93883c-0.44165,-0.83608 -0.66629,-2.7495 -0.51775,-2.91461c0.28487,-0.31662 1.66228,-0.87806 2.4765,-1.30814c0.79222,-0.41848 1.78673,-2.1203 1.78673,-2.1203" fill="#ff680b" stroke="#b44500"/><path d="M230.17521,183.36282c0,0 1.57805,-0.10932 2.43185,-0.56035c0.91571,-0.48371 2.84675,-1.50374 2.84675,-1.50374c0,0 1.66056,1.27583 2.07668,2.0636c0.43741,0.82806 0.48707,2.78986 0.48707,2.78986c0,0 -1.83485,0.96923 -2.73358,1.44397c-0.87447,0.46192 -1.92547,1.79304 -1.92547,1.79304" data-paper-data="{&quot;index&quot;:null}" fill="#ff680b" stroke="none"/><path d="M230.11134,182.83595c0,0 2.04664,0.27423 2.82015,-0.13435c0.82959,-0.43821 2.45053,-1.41466 2.57901,-1.3623c0.39973,0.16286 1.63531,1.16137 2.04601,1.93885c0.44165,0.83608 0.6663,2.7495 0.51773,2.91461c-0.28487,0.31661 -1.66228,0.87806 -2.47651,1.30814c-0.79223,0.41848 -1.69545,2.17781 -1.69545,2.17781" data-paper-data="{&quot;index&quot;:null}" fill="#ff680b" stroke="#b44500"/><path d="M231.74038,197.95294c0,0 -0.19595,1.99843 0.26649,2.74101c0.49597,0.79642 1.58495,2.34398 1.54183,2.47585c-0.13409,0.41028 -1.04243,1.7136 -1.78881,2.1784c-0.80264,0.49984 -2.6953,0.85968 -2.87054,0.7232c-0.33603,-0.26169 -0.99377,-1.59579 -1.48054,-2.37743c-0.47363,-0.76054 -2.13764,-1.49809 -2.13764,-1.49809" data-paper-data="{&quot;index&quot;:null}" fill="#ff680b" stroke="#b44500"/><path d="M213.02876,192.24999c0,0 -2.2712,-1.20591 -3.20508,-1.45145c-1.00159,-0.26334 -3.11366,-0.81871 -3.11366,-0.81871c0,0 -0.35958,-2.06297 -0.13304,-2.9246c0.23814,-0.9057 1.52887,-2.38394 1.52887,-2.38394c0,0 2.00689,0.52769 2.98989,0.78617c0.28712,0.07549 0.63894,0.10407 0.99074,0.1071c0.82016,0.00706 1.64024,-0.12476 1.64024,-0.12476" fill="#ff680b" stroke="none"/><path d="M211.60129,192.07183c0,0 -1.18819,-1.18385 -2.03424,-1.40631c-0.90737,-0.23859 -2.76162,-0.61624 -2.82083,-0.74172c-0.18418,-0.39038 -0.41847,-1.96162 -0.19486,-2.81199c0.24046,-0.91449 1.36959,-2.47548 1.5907,-2.49656c0.42399,-0.04043 1.81814,0.47807 2.70868,0.71223c0.86651,0.22784 2.64748,-0.22843 2.64748,-0.22843" fill="#ff680b" stroke="#b44500"/><path d="M226.5884,192.22497c-0.5044,2.09091 -2.60835,3.37704 -4.69927,2.87264c-2.09091,-0.5044 -3.37704,-2.60836 -2.87264,-4.69927c0.5044,-2.09091 2.60835,-3.37705 4.69927,-2.87265c2.09092,0.5044 3.37705,2.60836 2.87264,4.69929z" fill="#6c6b6b" stroke="#b44500"/><path d="M213.14832,185.30127c0,0 0.33384,-0.37484 0.50866,-0.60707c0.16932,-0.22492 0.52428,-0.76503 0.52428,-0.76503c0,0 -0.14909,-1.45083 -0.61153,-2.1934c-0.49597,-0.79642 -1.58495,-2.34399 -1.54183,-2.47586c0.13409,-0.41028 1.04244,-1.71359 1.78883,-2.17839c0.80264,-0.49984 2.6953,-0.85967 2.87054,-0.7232c0.33603,0.26169 0.99376,1.59578 1.48054,2.37742c0.47363,0.76054 2.27893,1.63811 2.27893,1.63811" fill="#ff680b" stroke="#b44500"/></g><path d="M257.02074,190.29902c-1.1608,1.46174 -2.60104,2.75151 -4.32074,3.86932c-1.71969,1.11781 -3.58986,2.04214 -5.61052,2.77301c-1.97764,0.73087 -3.99829,1.26827 -6.06193,1.61222c-2.06363,0.34395 -4.04128,0.51591 -5.93295,0.51591c-3.65435,0 -7.00777,-0.64489 -10.06023,-1.93466c-3.05247,-1.28977 -5.69651,-3.07395 -7.93211,-5.35255c-2.19261,-2.32159 -3.9123,-5.03012 -5.15909,-8.12557c-1.24679,-3.09545 -1.87017,-6.44886 -1.87017,-10.06022c0,-2.70853 0.30095,-5.37406 0.90285,-7.99659c0.64488,-2.62253 1.54773,-5.09461 2.70852,-7.41619c1.1608,-2.32159 2.57954,-4.44971 4.25625,-6.38438c1.67671,-1.93466 3.56838,-3.61137 5.675,-5.03011c2.14963,-1.41875 4.4927,-2.51505 7.02926,-3.28892c2.53656,-0.77387 5.24509,-1.1608 8.12557,-1.1608c1.0748,0 2.21411,0.04298 3.4179,0.12897c1.24679,0.08599 2.47206,0.23646 3.67585,0.45143c1.24679,0.21497 2.42907,0.51591 3.54688,0.90284c1.1608,0.38693 2.2356,0.83835 3.22443,1.35426l-1.0963,14.38097c-1.37577,-0.51591 -2.816,-0.85986 -4.32074,-1.03182c-1.50474,-0.21497 -2.96649,-0.32244 -4.38524,-0.32244c-2.02065,0 -3.9123,0.32245 -5.675,0.96733c-1.71969,0.6019 -3.22442,1.48323 -4.5142,2.64403c-1.28978,1.11781 -2.32159,2.51506 -3.09546,4.19177c-0.73087,1.63371 -1.09631,3.50388 -1.09631,5.61051c0,1.28977 0.17196,2.55804 0.51591,3.80483c0.38693,1.20379 0.92434,2.2786 1.61221,3.22443c0.73088,0.90284 1.61222,1.6552 2.64403,2.2571c1.0748,0.5589 2.32159,0.83836 3.74034,0.83836c0.94583,0 1.91316,-0.12898 2.90199,-0.38693c1.03181,-0.25796 1.91316,-0.68787 2.64404,-1.28977l0.19346,-2.90198l-9.0284,-0.12898l0.45141,-11.28551c3.74034,-0.12897 7.45918,-0.23645 11.15654,-0.32244c3.74034,-0.08599 7.50219,-0.21498 11.28551,-0.38694z" fill="#ff853a" stroke="#ce4f00"/></g><g><g stroke-width="1"><path d="M223.62583,189.41072c1.7315,-2.97112 5.54372,-3.97605 8.51485,-2.24455c2.97112,1.7315 3.97605,5.54372 2.24454,8.51485c-1.7315,2.97112 -5.54372,3.97605 -8.51485,2.24454c-2.97112,-1.7315 -3.97605,-5.54372 -2.24455,-8.51485zM230.07545,190.7313c-1.02452,-0.59707 -2.33909,-0.25054 -2.93616,0.77399c-0.59707,1.02452 -0.25054,2.33909 0.77399,2.93616c1.02452,0.59707 2.33909,0.25054 2.93616,-0.77399c0.59707,-1.02452 0.25054,-2.33909 -0.77399,-2.93616z" fill="url(#color-1)" stroke="#434343"/><path d="M227.889,198.37633c0,0 -0.70653,0.5112 -0.97457,0.97114c-0.28748,0.49329 -0.8937,1.53352 -0.8937,1.53352c0,0 -1.14894,-0.11292 -1.57329,-0.36022c-0.44606,-0.25995 -1.04123,-1.16346 -1.04123,-1.16346c0,0 0.57603,-0.98843 0.85818,-1.47257c0.27453,-0.47107 0.37826,-1.40032 0.37826,-1.40032" fill="#575757" stroke="none"/><path d="M228.03263,198.62321c0,0 -0.99774,0.44935 -1.24058,0.86603c-0.26044,0.44689 -0.73427,1.37634 -0.80965,1.38931c-0.23452,0.04033 -1.10377,-0.06671 -1.52259,-0.31079c-0.45039,-0.26248 -1.11332,-1.09232 -1.09194,-1.21289c0.04099,-0.2312 0.52185,-0.89546 0.77746,-1.33407c0.24871,-0.42677 0.1679,-1.52392 0.1679,-1.52392" fill="#575757" stroke="#434343"/><path d="M229.99434,186.76255c0,0 0.91248,-0.56465 1.18052,-1.02459c0.28748,-0.49329 0.8937,-1.53352 0.8937,-1.53352c0,0 1.14894,0.11292 1.57329,0.36022c0.44606,0.25995 1.04122,1.16346 1.04122,1.16346c0,0 -0.57603,0.98843 -0.85818,1.47257c-0.27453,0.47107 -0.37826,1.40032 -0.37826,1.40032" data-paper-data="{&quot;index&quot;:null}" fill="#575757" stroke="none"/><path d="M229.86312,186.45751c0,0 1.19131,-0.44463 1.43414,-0.86132c0.26044,-0.44689 0.73427,-1.37634 0.80965,-1.3893c0.23452,-0.04033 1.10377,0.06671 1.52259,0.31079c0.45039,0.26248 1.11331,1.09231 1.09194,1.2129c-0.04099,0.2312 -0.52185,0.89545 -0.77746,1.33406c-0.24871,0.42678 -0.20032,1.50487 -0.20032,1.50487" data-paper-data="{&quot;index&quot;:null}" fill="#575757" stroke="#434343"/><path d="M234.81436,193.8203c0,0 0.49667,0.71682 0.95106,0.99419c0.48734,0.29748 1.51497,0.9248 1.51497,0.9248c0,0 -0.13633,1.14639 -0.39223,1.56562c-0.269,0.44067 -1.18446,1.01727 -1.18446,1.01727c0,0 -0.97646,-0.59608 -1.45475,-0.88804c-0.46538,-0.28409 -1.39232,-0.40675 -1.39232,-0.40675" data-paper-data="{&quot;index&quot;:null}" fill="#575757" stroke="none"/><path d="M235.05739,193.68174c0,0 0.4356,1.00672 0.84725,1.258c0.44149,0.26951 1.36106,0.76219 1.37248,0.83783c0.03553,0.2353 -0.08921,1.10219 -0.34179,1.51594c-0.27162,0.44495 -1.11482,1.0908 -1.23492,1.06696c-0.23031,-0.0457 -0.88463,-0.54002 -1.31792,-0.80452c-0.4216,-0.25736 -1.49155,-0.20076 -1.49155,-0.20076" data-paper-data="{&quot;index&quot;:null}" fill="#575757" stroke="#434343"/><path d="M225.65683,187.63133c0,0 0.13099,-0.86218 -0.00898,-1.3758c-0.15011,-0.55086 -0.46665,-1.71249 -0.46665,-1.71249c0,0 0.88615,-0.73996 1.36004,-0.8691c0.49813,-0.13574 1.55961,0.07349 1.55961,0.07349c0,0 0.30078,1.10378 0.4481,1.64442c0.14335,0.52606 0.73312,1.25162 0.73312,1.25162" fill="#575757" stroke="none"/><path d="M232.35424,197.46041c0,0 -0.13098,0.86218 0.00898,1.37581c0.15011,0.55086 0.46664,1.7125 0.46664,1.7125c0,0 -0.88616,0.73996 -1.36005,0.8691c-0.49813,0.13574 -1.55962,-0.0735 -1.55962,-0.0735c0,0 -0.30076,-1.10377 -0.44809,-1.64442c-0.14335,-0.52606 -0.73312,-1.25161 -0.73312,-1.25161" data-paper-data="{&quot;index&quot;:null}" fill="#575757" stroke="none"/><path d="M223.8658,195.53749c0,0 -0.85072,-0.19182 -1.37297,-0.08864c-0.56012,0.11065 -1.74129,0.34398 -1.74129,0.34398c0,0 -0.67523,-0.93642 -0.77042,-1.41828c-0.10006,-0.50651 0.18396,-1.55046 0.18396,-1.55046c0,0 1.12234,-0.22171 1.67206,-0.33031c0.53489,-0.10566 1.30047,-0.64247 1.30047,-0.64247" fill="#575757" stroke="none"/><path d="M223.71893,195.76867c0,0 -1.04576,-0.39047 -1.41339,-0.31785c-0.50744,0.10024 -1.51794,0.35958 -1.57751,0.31162c-0.18536,-0.14923 -0.68001,-0.87198 -0.77395,-1.34754c-0.10103,-0.51141 0.08292,-1.55749 0.18749,-1.62119c0.20052,-0.12216 1.01677,-0.20086 1.51481,-0.29923c0.48458,-0.09573 1.27895,-0.83724 1.27895,-0.83724" fill="#575757" stroke="#434343"/><path d="M234.14526,189.55425c0,0 0.85072,0.19183 1.37297,0.08865c0.56012,-0.11065 1.74129,-0.34398 1.74129,-0.34398c0,0 0.67523,0.93643 0.77042,1.41828c0.10006,0.50651 -0.18396,1.55046 -0.18396,1.55046c0,0 -1.12233,0.22172 -1.67207,0.33031c-0.53489,0.10566 -1.30047,0.64247 -1.30047,0.64247" data-paper-data="{&quot;index&quot;:null}" fill="#575757" stroke="none"/><path d="M234.19485,189.26589c0,0 1.03753,0.4685 1.51067,0.37504c0.50744,-0.10024 1.51794,-0.3596 1.57752,-0.31163c0.18536,0.14923 0.68,0.87199 0.77396,1.34755c0.10103,0.51141 -0.08292,1.55749 -0.1875,1.62119c-0.20052,0.12216 -1.01677,0.20086 -1.51481,0.29923c-0.48458,0.09573 -1.23984,0.88205 -1.23984,0.88205" data-paper-data="{&quot;index&quot;:null}" fill="#575757" stroke="#434343"/><path d="M232.66453,197.50737c0,0 -0.41953,1.02446 -0.29273,1.48977c0.13599,0.49905 0.46638,1.4886 0.42276,1.55143c-0.1357,0.19548 -0.82155,0.74016 -1.28924,0.8676c-0.50295,0.13705 -1.55944,0.02779 -1.63041,-0.07201c-0.13608,-0.19135 -0.27248,-0.99996 -0.40595,-1.48975c-0.12987,-0.47658 -0.89206,-1.12925 -0.89206,-1.12925" data-paper-data="{&quot;index&quot;:null}" fill="#575757" stroke="#434343"/><path d="M223.68411,191.53628c0,0 -1.00879,-0.99607 -1.46318,-1.27343c-0.48733,-0.29748 -1.51497,-0.9248 -1.51497,-0.9248c0,0 0.13634,-1.1464 0.39225,-1.56563c0.269,-0.44067 1.18446,-1.01727 1.18446,-1.01727c0,0 0.97646,0.59608 1.45475,0.88804c0.1397,0.08528 0.32099,0.15601 0.50631,0.21325c0.43204,0.13343 0.886,0.19351 0.886,0.19351" fill="#575757" stroke="none"/><path d="M222.95838,191.21643c0,0 -0.44031,-0.81314 -0.85197,-1.06443c-0.44149,-0.26951 -1.36106,-0.76219 -1.37248,-0.83783c-0.03553,-0.2353 0.08921,-1.10218 0.34179,-1.51593c0.27162,-0.44495 1.11482,-1.0908 1.23493,-1.06697c0.23031,0.0457 0.88462,0.54002 1.31792,0.80452c0.4216,0.25736 1.43436,0.29804 1.43436,0.29804" fill="#575757" stroke="#434343"/><path d="M230.84942,193.66746c-0.59707,1.02452 -1.91163,1.37104 -2.93616,0.77398c-1.02452,-0.59707 -1.37105,-1.91164 -0.77399,-2.93616c0.59707,-1.02452 1.91163,-1.37105 2.93616,-0.77399c1.02452,0.59707 1.37105,1.91164 0.77398,2.93617z" fill="#747474" stroke="#434343"/><path d="M224.84615,187.8853c0,0 0.23559,-0.14517 0.36464,-0.24017c0.125,-0.09201 0.39788,-0.32113 0.39788,-0.32113c0,0 0.1507,-0.78981 0.0239,-1.25513c-0.13599,-0.49905 -0.46638,-1.4886 -0.42275,-1.55143c0.1357,-0.19548 0.82155,-0.74015 1.28925,-0.86759c0.50295,-0.13705 1.55944,-0.02778 1.6304,0.07201c0.13608,0.19135 0.27248,0.99995 0.40595,1.48975c0.12987,0.47658 0.94452,1.22555 0.94452,1.22555" fill="#575757" stroke="#434343"/></g><path d="M264.27533,169.45804l9.26472,34.16419l-12.86219,6.25622l-10.35789,-15.15882l4.24356,16.5477l-12.7899,6.41318l-19.79982,-28.74181l10.87072,-6.24281l11.02238,17.94439l-5.6464,-20.42013l8.90765,-4.10214l12.42575,17.58349l-7.04977,-20.05923z" fill="url(#color-2)" stroke="#434343" stroke-width="1.5"/></g></g></g></svg>